<svg width="1906" height="1086" viewBox="0 0 1906 1086" fill="none" xmlns="http://www.w3.org/2000/svg">
<path d="M1584 119.336L1551.69 80.5697C1545.23 72.8179 1535.67 68.3359 1525.58 68.3359H1490.5" stroke="black" stroke-width="17"/>
<path d="M502 467.336L511 229.336L672 447.836L639 532.836L564 570.836L430.5 606.336L371.5 628.336L326 714.836L319 780.836L345 813.336L343 838.836L272.5 818.836L262.5 795.336V769.836L272.5 750.836V726.336L301.5 684.336V645.336L319 640.336V581.836L438 532.836L502 467.336Z" fill="black"/>
<path d="M1214.67 464.978L1154 422.336L1223 387.836L1455.96 505.003C1469.06 511.595 1478.85 523.323 1482.99 537.397L1499.89 594.858C1502.6 604.059 1503.2 613.75 1501.66 623.216L1497.72 647.324C1496.91 652.311 1495.46 657.174 1493.41 661.792L1482.14 687.153C1478.54 695.245 1471.75 701.486 1463.39 704.395C1457.41 706.475 1450.77 704.718 1446.6 699.954L1439.5 691.836V654.836L1453.5 629.336H1476.5L1448.61 573.934C1442.74 562.28 1432.78 553.199 1420.64 548.431L1232.48 474.559C1226.18 472.086 1220.2 468.869 1214.67 464.978Z" fill="black"/>
<path d="M21 539.336L118 508.336L236 403.336L364 308.836L448 272.336L498 226.836L539.5 186.336L598 160.836L654.5 138.836L719.5 136.336L832 150.836L961.5 138.836L1107.25 92.8359L1147.43 68.0266C1168.82 54.814 1193.41 47.6537 1218.55 47.3087L1253 46.8359L1480.5 77.8359L1612 76.8359L1650 91.5859L1688 124.336L1705 171.836L1805.5 238.836L1794.5 271.336L1772.75 289.336L1751 295.336L1722 296.336L1737.5 311.336L1724 327.336L1692 324.836L1654.25 304.586L1616.5 284.336L1564.25 267.836L1512 262.336L1462 258.836L1402 263.336L1430.23 304.617C1433.37 309.207 1435.47 314.43 1436.37 319.918L1441.5 351.211L1462 390.836L1723.46 451.472C1728.62 452.667 1733.1 455.825 1735.96 460.275L1738.66 464.465C1745.36 474.874 1758.19 479.528 1770 475.836V475.836L1839 513.836L1885 570.836V602.336L1842 592.336L1806 570.836L1801 543.336L1753 513.836L1705 506.336L1561.75 482.086L1438.67 478.434C1425.48 478.043 1412.67 473.986 1401.66 466.718L1367 443.836L1324.5 416.836L1284 414.836L1178 436.836V436.836C1152.32 444.409 1125.28 446.215 1098.82 442.125L760.5 389.836V389.836C780.878 438.62 773.297 494.608 740.68 536.216L623 686.336L708.75 782.086L784.06 828.273C788.683 831.108 791.5 836.141 791.5 841.563V841.563C791.5 851.598 783.264 859.68 773.231 859.489L712.5 858.336L632 764.336L568.054 699.353C551.425 682.455 548.95 656.202 562.126 636.493L596.049 585.755C597.345 583.816 598.402 581.728 599.198 579.536L624.713 509.28C629.659 495.659 628.453 480.563 621.407 467.9L600.678 430.649C598.912 427.476 596.501 424.707 593.6 422.522L526.283 371.827C520.275 367.303 515.993 360.861 514.146 353.57L498 289.836L364 346.336L248.75 422.836L203.5 468.836L160.468 506.612C145.843 519.451 127.628 527.488 108.286 529.638L21 539.336Z" fill="black"/>
<g filter="url(#filter0_f_454_3855)">
<path d="M1025.73 124.384L1199.39 92.7795L1309.1 71.7785L1309.1 218.17L1376.64 204.25L1324.94 114.426L1376.17 92.1599L1423.83 174.527L1416.22 83.9077L1475.07 98.7778L1515.57 268.294L1471.97 215.334L1416.22 218.17L1244.63 334.862L1382.12 464.333L1515.57 454.332L1698 478.333L1515.57 414.167L1337.23 414.167L1371.04 305.377L1371.04 228.329L1334.76 267.024L1216.56 291.383L1199.39 259.315L1157.07 360.266L1154.03 414.167L1244.63 334.862L1069.5 385.67L895.558 368.831L798.099 334.862L752.553 257.401L718.171 238.12L752.553 174.528L798.099 238.121L843.754 173.594L900.78 150.135L895.558 249.253L963.2 204.096L1025.73 124.384Z" fill="white" fill-opacity="0.16"/>
</g>
<g filter="url(#filter1_f_454_3855)">
<path d="M561 297.836L707.44 448.768C717.271 458.901 719.3 474.279 712.433 486.615L613.5 664.336" stroke="white" stroke-opacity="0.43" stroke-width="17"/>
</g>
<g filter="url(#filter2_f_454_3855)">
<path d="M1475.02 234.757L1550.94 258.553L1594.19 259.572L1699.72 267.723L1759.13 268.238C1769.53 268.328 1778 259.927 1778 249.531C1778 242.201 1773.72 235.546 1767.05 232.507L1699.72 201.836L1676.09 227.134C1669.92 233.744 1661.28 237.496 1652.24 237.496C1635.23 237.496 1620.48 225.732 1616.71 209.151L1608.89 174.836L1545.9 193.367C1539.04 195.385 1531.99 196.668 1524.86 197.197L1462.27 201.836C1454.96 214.356 1461.18 230.421 1475.02 234.757Z" fill="white" fill-opacity="0.15"/>
</g>
<g filter="url(#filter3_f_454_3855)">
<path d="M1622 109.836V146.336C1622 149.65 1624.69 152.336 1628 152.336H1664.5" stroke="white" stroke-opacity="0.29" stroke-width="18"/>
</g>
<g filter="url(#filter4_f_454_3855)">
<path d="M315 697.336L365 602.836L579 502.336L535 395.336" stroke="white" stroke-opacity="0.47" stroke-width="12"/>
</g>
<g filter="url(#filter5_f_454_3855)">
<path d="M1535 70.8359L1569 111.836" stroke="white" stroke-opacity="0.41" stroke-width="11"/>
</g>
<g filter="url(#filter6_f_454_3855)">
<path fill-rule="evenodd" clip-rule="evenodd" d="M1536.53 859.424H1490.5V870.272L1480.5 870.291L1253 862.566L1190.52 862.78C1183.6 862.803 1176.69 863.344 1169.85 864.396L1107.25 874.029L961.5 885.492L832 888.482L719.5 884.869L654.5 885.492L598 890.974L539.5 897.329L498 907.421L448 918.759L364 927.855L236 951.404L118 977.569L21 985.294L129.062 982.302C135.008 982.137 140.924 981.415 146.735 980.144L203.5 967.726L248.75 956.263L364 937.2L498 923.12L507.321 932.289L502 967.352L438 983.674L319 995.885V1010.46L301.5 1011.71V1021.43L272.5 1031.89V1038L262.5 1042.73V1049.09L272.5 1054.94L343 1059.93L345 1053.57L319 1045.47L326 1029.03L371.5 1007.47L430.5 1001.99L564 993.143L607.866 987.605C606.472 989.69 604.644 991.575 602.371 993.135L599.12 995.365C598.376 995.876 597.573 996.293 596.727 996.608C579.218 1003.13 580.59 1028.34 598.704 1032.93L632 1041.36L712.5 1064.79L787.64 1065.14C789.769 1065.15 791.5 1063.43 791.5 1061.3C791.5 1059.65 790.295 1058.25 788.664 1058L708.75 1045.79L623 1021.93L756.88 979.367C771.086 974.851 773.302 955.677 760.5 948.039L1139 962.617L1175.63 959.926L1223 968.224L1429.84 988.461C1436.23 989.085 1442.45 990.864 1448.2 993.71L1476.5 1007.72H1453.5L1439.5 1014.08V1023.3L1447.84 1025.67C1451.58 1026.74 1455.49 1027.11 1459.37 1026.77L1465.17 1026.27C1472.64 1025.62 1479.88 1023.39 1486.42 1019.73L1494.07 1015.44C1495.67 1014.54 1497.02 1013.28 1498.03 1011.74C1501.44 1006.53 1500.43 999.588 1495.68 995.56L1482.5 984.393C1478.58 981.078 1473.79 978.974 1468.7 978.336L1278.82 954.537L1284 954.269L1324.5 954.768L1346.58 958.264L1382.12 966.604L1396.42 966.337L1413.04 969.07C1416.67 969.668 1420.35 969.982 1424.04 970.009L1561.75 971.028L1705 977.07L1753 978.939L1801 986.291L1806 993.143L1842 998.501L1885 1000.99V993.143L1839 978.939L1770 969.47L1764 969.937C1754.78 970.655 1745.52 969.294 1736.9 965.956C1733.32 964.569 1729.55 963.75 1725.72 963.529L1462 948.289L1441.5 938.414C1437.28 932.003 1431.11 927.121 1423.89 924.493L1402 916.517L1462 915.395L1510.59 916.243L1515.57 917.752L1514.2 916.325L1564.25 917.638L1616.5 921.75L1654.25 926.796L1692 931.842L1724 932.465L1737.5 928.478L1722 924.74L1751 924.491L1772.75 922.996L1794.5 918.51L1805.5 910.411L1705 893.715L1688 881.879L1650 873.718L1612 870.042L1578.46 870.106L1548.7 861.205C1544.75 860.024 1540.65 859.424 1536.53 859.424Z" fill="black" fill-opacity="0.34"/>
</g>
<defs>
<filter id="filter0_f_454_3855" x="660.871" y="14.4793" width="1094.43" height="521.153" filterUnits="userSpaceOnUse" color-interpolation-filters="sRGB">
<feFlood flood-opacity="0" result="BackgroundImageFix"/>
<feBlend mode="normal" in="SourceGraphic" in2="BackgroundImageFix" result="shape"/>
<feGaussianBlur stdDeviation="28.65" result="effect1_foregroundBlur_454_3855"/>
</filter>
<filter id="filter1_f_454_3855" x="501.899" y="238.918" width="276.074" height="482.553" filterUnits="userSpaceOnUse" color-interpolation-filters="sRGB">
<feFlood flood-opacity="0" result="BackgroundImageFix"/>
<feBlend mode="normal" in="SourceGraphic" in2="BackgroundImageFix" result="shape"/>
<feGaussianBlur stdDeviation="26.5" result="effect1_foregroundBlur_454_3855"/>
</filter>
<filter id="filter2_f_454_3855" x="1405.68" y="121.336" width="425.816" height="200.402" filterUnits="userSpaceOnUse" color-interpolation-filters="sRGB">
<feFlood flood-opacity="0" result="BackgroundImageFix"/>
<feBlend mode="normal" in="SourceGraphic" in2="BackgroundImageFix" result="shape"/>
<feGaussianBlur stdDeviation="26.75" result="effect1_foregroundBlur_454_3855"/>
</filter>
<filter id="filter3_f_454_3855" x="1579.6" y="76.4359" width="118.3" height="118.3" filterUnits="userSpaceOnUse" color-interpolation-filters="sRGB">
<feFlood flood-opacity="0" result="BackgroundImageFix"/>
<feBlend mode="normal" in="SourceGraphic" in2="BackgroundImageFix" result="shape"/>
<feGaussianBlur stdDeviation="16.7" result="effect1_foregroundBlur_454_3855"/>
</filter>
<filter id="filter4_f_454_3855" x="274.297" y="357.655" width="347.825" height="377.888" filterUnits="userSpaceOnUse" color-interpolation-filters="sRGB">
<feFlood flood-opacity="0" result="BackgroundImageFix"/>
<feBlend mode="normal" in="SourceGraphic" in2="BackgroundImageFix" result="shape"/>
<feGaussianBlur stdDeviation="17.7" result="effect1_foregroundBlur_454_3855"/>
</filter>
<filter id="filter5_f_454_3855" x="1510.07" y="46.6242" width="83.8668" height="89.4234" filterUnits="userSpaceOnUse" color-interpolation-filters="sRGB">
<feFlood flood-opacity="0" result="BackgroundImageFix"/>
<feBlend mode="normal" in="SourceGraphic" in2="BackgroundImageFix" result="shape"/>
<feGaussianBlur stdDeviation="10.35" result="effect1_foregroundBlur_454_3855"/>
</filter>
<filter id="filter6_f_454_3855" x="0.299999" y="838.724" width="1905.4" height="247.119" filterUnits="userSpaceOnUse" color-interpolation-filters="sRGB">
<feFlood flood-opacity="0" result="BackgroundImageFix"/>
<feBlend mode="normal" in="SourceGraphic" in2="BackgroundImageFix" result="shape"/>
<feGaussianBlur stdDeviation="10.35" result="effect1_foregroundBlur_454_3855"/>
</filter>
</defs>
</svg>
