<svg width="2006" height="1036" viewBox="0 0 2006 1036" fill="none" xmlns="http://www.w3.org/2000/svg">
<g filter="url(#filter0_f_454_3752)">
<path fill-rule="evenodd" clip-rule="evenodd" d="M974.973 783.416L767.473 762.869L622.759 762.002C615.249 761.957 607.749 762.553 600.34 763.784L451.223 788.553L354.973 791.199L286.348 788.125L198.545 778.09C184.681 776.506 170.723 775.911 156.775 776.309L96.9003 778.018C91.7064 778.166 86.5312 778.707 81.419 779.636L15.9169 791.546C13.5054 791.984 12.2538 794.677 13.4733 796.803L102.723 787.541L191.973 787.619L309.473 801.161H389.973L462.973 798.982L529.973 789.331L478.832 809.083C468.715 812.991 459.574 819.062 452.048 826.871C442.842 836.425 431.19 843.271 418.363 846.662L384.389 855.643H285.168C279.141 855.643 273.215 857.199 267.966 860.162L190.473 903.897H150.973L124.473 917.284L127.473 926.468H170.473L174.7 924.527L171.848 927.286L158.904 933.877C146.591 940.146 145.399 957.274 156.723 965.189L204.723 964.605L199.973 947.638L236.473 917.751L262.766 906.471C272.522 902.286 282.819 899.496 293.354 898.184L354.973 890.511L457.473 886.074L563.883 873.67C567.272 873.275 570.628 872.633 573.923 871.748L619.723 859.456L668.986 852.884C669.974 852.752 670.974 852.744 671.964 852.859L718.473 858.289L776.407 870.656C783.223 872.111 790.013 868.089 792.013 861.412C793.177 857.525 796.751 854.86 800.808 854.854L837.822 854.8C843.902 854.791 849.962 855.493 855.879 856.892L887.473 864.36L1052.47 900.162L1154.97 911.758L1257.47 912.77C1256.89 918.797 1260.51 924.44 1266.23 926.421L1361.22 959.313L1449.97 998.695L1481.47 999.94L1542.97 1023.13L1635.97 1020.18L1637.47 1013.33L1583.47 1005.54L1529.47 991.535L1477.47 968.497L1413.47 939.31L1361.97 918.024L1364.47 906.388L1368.87 905.83L1404.97 915.728L1479.47 924.445L1554.47 930.36L1629.47 939.077L1701.35 947.878L1700.97 948.883L1784.47 950.129L1831.67 954.685C1843.06 955.785 1854.56 954.331 1865.31 950.431L1888.47 942.034V928.803L1848.97 929.426L1805.97 932.695H1717.32L1718.47 931.294L1619.97 916.817L1477.47 892.067L1447.47 865.605L1444.75 864.296L1446.97 863.737L1559.72 863.503L1671.51 869.445C1672.15 869.479 1672.79 869.575 1673.41 869.732L1743.62 887.36C1747.84 888.419 1752.17 888.943 1756.52 888.921L1786.56 888.769C1794.23 888.73 1797.28 878.838 1790.97 874.478L1862.47 871.364C1873.15 869.203 1873.03 853.899 1862.32 851.903L1784.8 837.459C1783.59 837.234 1782.45 836.771 1781.43 836.096L1777.47 833.481C1761.14 822.679 1742.82 815.226 1723.58 811.556L1700.48 807.148C1699.14 806.893 1697.79 806.757 1696.43 806.742L1617.47 805.831L1576.77 792.865C1575.25 792.381 1573.66 792.163 1572.06 792.221C1564.67 792.492 1561.88 802.018 1567.96 806.232L1570.97 808.322L1447.72 799.293L1352.93 789.476C1333.99 787.515 1314.92 787.157 1295.93 788.407L1182.47 795.869L1078.72 793.067L974.973 783.416Z" fill="black" fill-opacity="0.34"/>
</g>
<path d="M1899 563.5H1800L1794 615.5L1877.5 619.5L1893.71 624.527C1923.03 633.617 1954.94 624.43 1974.94 601.145L1981.5 593.5V551L1942 553L1899 563.5Z" fill="black" stroke="black"/>
<path d="M389.665 316H494.5L283.5 514L263.5 543.5H220.5L217.5 514L244 471H283.5L359.019 334.095C365.176 322.932 376.917 316 389.665 316Z" fill="black"/>
<path d="M1570.5 433L1540.5 348L1498 282.5L1431 450L1498 509L1572.5 537L1647.5 556L1722.5 584L1797.5 613.5L1811.5 559L1713 512.5L1570.5 433Z" fill="black" stroke="black"/>
<path d="M795.821 16.7562C838.715 17.5811 881.264 24.6045 922.148 37.6085L1068 84L1155.68 110.199C1166.37 113.391 1177.35 115.486 1188.46 116.449L1250.51 121.832C1267.08 123.269 1283.77 122.253 1300.05 118.814L1327.87 112.936C1386.56 100.536 1447.5 103.98 1504.43 122.916L1540.75 135L1664 164L1647.58 127.435C1644.82 121.273 1648.83 114.197 1655.54 113.407L1658.71 113.034C1664.25 112.382 1669.79 114.338 1673.69 118.33L1710.5 156L1785.47 158.777C1789.42 158.923 1793.27 160.085 1796.64 162.151L1808.03 169.133C1832.64 184.214 1852.3 206.162 1864.59 232.274L1872.24 248.506C1874.69 253.717 1878.64 258.08 1883.58 261.037L1954.33 303.377C1977.94 317.509 1978.58 351.501 1955.5 366.5V366.5L1884 376.5L1891.39 392.895C1897.59 406.659 1887.68 422.274 1872.58 422.519L1865.81 422.629C1851.07 422.869 1836.72 417.932 1825.24 408.677L1767.53 362.135C1766.2 361.063 1764.62 360.349 1762.93 360.062L1652.75 341.25L1540 342L1520.65 357.592C1511.7 364.806 1506.5 375.683 1506.5 387.179V448.921C1506.5 455.016 1502.81 460.505 1497.17 462.809L1457.5 479L1455 516.375L1506.5 584.75L1570.5 678.5L1622.5 752.5L1676.5 797.5L1730.5 822.5L1729 844.5L1636 854L1574.5 779.5L1543 775.5L1454.25 649L1356.2 539.954C1351.9 535.17 1349.61 528.912 1349.8 522.481L1350.5 499.5L1284.89 497.42C1260.45 496.645 1236.29 491.995 1213.31 483.643L1165.78 466.371C1152.32 461.478 1139.55 454.852 1127.79 446.66L980.5 344L961.075 329.251C947.407 318.874 930.7 313.294 913.539 313.375L896.975 313.453C891.315 313.48 886.599 317.797 886.074 323.432L884.027 345.393C882.894 357.548 869.115 364.007 859.048 357.104L811.5 324.5L768.012 308.192C765.116 307.106 761.913 307.18 759.071 308.398L712.75 328.25L671.461 363.844C665.203 369.239 658.039 373.483 650.302 376.38L550.5 413.75L448 428L400.814 446.874C381.01 454.796 363.852 468.161 351.324 485.425L329.5 515.5L293 611.5L297.75 666L249.75 667.875L232.235 628.554C227.549 618.034 228.338 605.881 234.346 596.055L264.875 546.125L286 480.5L347.954 378.16C351.397 372.474 357.561 369 364.208 369H385.249C404.456 369 423.037 362.175 437.678 349.743L490.729 304.695C517.013 282.377 536.273 252.925 546.181 219.898V219.898C552.995 197.182 564.154 176.004 579.037 157.54L623 103L574.724 125.337C562.331 131.071 549.056 134.666 535.463 135.969L483 141H429.016C411.478 141 394.08 137.883 377.633 131.794L306.833 105.583C292.391 100.236 277.119 97.4779 261.719 97.4348L195.75 97.25L106.5 127V127C104.998 118.59 108.903 110.136 116.281 105.828L154.328 83.6087C172.636 72.9165 193.068 66.3718 214.181 64.4362V64.4362C251.427 61.0215 288.966 65.9368 324.077 78.8256L379.375 99.125L448 109L510.352 103.494C532.721 101.518 554.461 95.0518 574.274 84.4812L674.182 31.1758C694.063 20.5687 716.328 15.2275 738.857 15.6607L795.821 16.7562Z" fill="black"/>
<g filter="url(#filter1_f_454_3752)">
<path d="M1648.02 315.355L1723.94 339.151L1767.19 340.169L1872.72 348.32L1932.13 348.836C1942.53 348.926 1951 340.524 1951 330.129C1951 322.799 1946.72 316.144 1940.05 313.105L1872.72 282.434L1849.09 307.731C1842.92 314.341 1834.28 318.094 1825.24 318.094C1808.23 318.094 1793.48 306.33 1789.71 289.749L1781.89 255.434L1718.9 273.965C1712.04 275.982 1704.99 277.266 1697.86 277.794L1635.27 282.434C1627.96 294.954 1634.18 311.019 1648.02 315.355Z" fill="white" fill-opacity="0.15"/>
</g>
<g filter="url(#filter2_f_454_3752)">
<path d="M866.509 247.509L904.5 285.5L813.543 272.56C794.989 269.921 776.075 273.206 759.498 281.947L757.5 283L717.5 313.5L647.5 356L738.771 266.219C758.784 246.533 785.733 235.5 813.806 235.5H837.517C848.391 235.5 858.82 239.82 866.509 247.509Z" fill="white" fill-opacity="0.45"/>
</g>
<g filter="url(#filter3_f_454_3752)">
<path d="M669.5 74L709 58L721.5 143L692.82 232.189C684.809 257.1 669.183 278.869 648.143 294.428L561.5 358.5L419 411L434 372L514 320.25L594 244.5L669.5 74Z" fill="white" fill-opacity="0.3"/>
</g>
<g filter="url(#filter4_f_454_3752)">
<path d="M1075.41 116.807L1247.32 155.981L1357.16 142.604L1334.01 265.858H1402.97L1370.46 167.446L1425.14 155.981L1455.18 246.271L1466.02 155.981H1526.12V356.627L1494.1 295.955L1455.18 367.137L1424.64 528.5L1564 700.591L1537.45 724L1392.63 557.273L1357.16 449.306L1381.79 395.8H1424.64L1428.09 359.493L1381.79 356.627L1392.63 288.311L1349.28 318.886H1228.6L1218.25 284.012L1163.08 327.007L1176.38 387.201H1293.13L1271.45 423.986L1203.48 474.148L1099.05 409.655L1051.76 367.137L870 193.271L781 191.946L718 58H773.5L829.5 182.256L887.24 128.272L947.828 116.807L922.706 212.83L998.071 182.256L1075.41 116.807Z" fill="white" fill-opacity="0.18"/>
</g>
<g filter="url(#filter5_f_454_3752)">
<path d="M1670.5 130.5L1711.5 192.5" stroke="white" stroke-width="2"/>
</g>
<g filter="url(#filter6_f_454_3752)">
<path d="M1784 575L1556.5 472" stroke="white" stroke-opacity="0.37" stroke-width="8"/>
</g>
<g filter="url(#filter7_f_454_3752)">
<path d="M1782.5 189V225.5C1782.5 228.814 1785.19 231.5 1788.5 231.5H1825" stroke="white" stroke-opacity="0.29" stroke-width="18"/>
</g>
<g filter="url(#filter8_f_454_3752)">
<path d="M625 76L568.064 99.5598C529.101 115.682 487.249 123.653 445.087 122.981L418.566 122.559C395.635 122.193 373.252 115.498 353.887 103.211V103.211C325.875 85.4378 293.384 76 260.208 76H214" stroke="white" stroke-opacity="0.41" stroke-width="3"/>
</g>
<defs>
<filter id="filter0_f_454_3752" x="0.2" y="749.2" width="1901.07" height="286.733" filterUnits="userSpaceOnUse" color-interpolation-filters="sRGB">
<feFlood flood-opacity="0" result="BackgroundImageFix"/>
<feBlend mode="normal" in="SourceGraphic" in2="BackgroundImageFix" result="shape"/>
<feGaussianBlur stdDeviation="6.4" result="effect1_foregroundBlur_454_3752"/>
</filter>
<filter id="filter1_f_454_3752" x="1578.68" y="201.934" width="425.817" height="200.402" filterUnits="userSpaceOnUse" color-interpolation-filters="sRGB">
<feFlood flood-opacity="0" result="BackgroundImageFix"/>
<feBlend mode="normal" in="SourceGraphic" in2="BackgroundImageFix" result="shape"/>
<feGaussianBlur stdDeviation="26.75" result="effect1_foregroundBlur_454_3752"/>
</filter>
<filter id="filter2_f_454_3752" x="611" y="199" width="330" height="193.5" filterUnits="userSpaceOnUse" color-interpolation-filters="sRGB">
<feFlood flood-opacity="0" result="BackgroundImageFix"/>
<feBlend mode="normal" in="SourceGraphic" in2="BackgroundImageFix" result="shape"/>
<feGaussianBlur stdDeviation="18.25" result="effect1_foregroundBlur_454_3752"/>
</filter>
<filter id="filter3_f_454_3752" x="366.8" y="5.8" width="406.9" height="457.4" filterUnits="userSpaceOnUse" color-interpolation-filters="sRGB">
<feFlood flood-opacity="0" result="BackgroundImageFix"/>
<feBlend mode="normal" in="SourceGraphic" in2="BackgroundImageFix" result="shape"/>
<feGaussianBlur stdDeviation="26.1" result="effect1_foregroundBlur_454_3752"/>
</filter>
<filter id="filter4_f_454_3752" x="660.7" y="0.700001" width="960.6" height="780.6" filterUnits="userSpaceOnUse" color-interpolation-filters="sRGB">
<feFlood flood-opacity="0" result="BackgroundImageFix"/>
<feBlend mode="normal" in="SourceGraphic" in2="BackgroundImageFix" result="shape"/>
<feGaussianBlur stdDeviation="28.65" result="effect1_foregroundBlur_454_3752"/>
</filter>
<filter id="filter5_f_454_3752" x="1650.17" y="110.449" width="81.6682" height="102.102" filterUnits="userSpaceOnUse" color-interpolation-filters="sRGB">
<feFlood flood-opacity="0" result="BackgroundImageFix"/>
<feBlend mode="normal" in="SourceGraphic" in2="BackgroundImageFix" result="shape"/>
<feGaussianBlur stdDeviation="9.75" result="effect1_foregroundBlur_454_3752"/>
</filter>
<filter id="filter6_f_454_3752" x="1518.35" y="431.855" width="303.8" height="183.289" filterUnits="userSpaceOnUse" color-interpolation-filters="sRGB">
<feFlood flood-opacity="0" result="BackgroundImageFix"/>
<feBlend mode="normal" in="SourceGraphic" in2="BackgroundImageFix" result="shape"/>
<feGaussianBlur stdDeviation="18.25" result="effect1_foregroundBlur_454_3752"/>
</filter>
<filter id="filter7_f_454_3752" x="1740.1" y="155.6" width="118.3" height="118.3" filterUnits="userSpaceOnUse" color-interpolation-filters="sRGB">
<feFlood flood-opacity="0" result="BackgroundImageFix"/>
<feBlend mode="normal" in="SourceGraphic" in2="BackgroundImageFix" result="shape"/>
<feGaussianBlur stdDeviation="16.7" result="effect1_foregroundBlur_454_3752"/>
</filter>
<filter id="filter8_f_454_3752" x="201.2" y="61.7" width="437.173" height="75.6215" filterUnits="userSpaceOnUse" color-interpolation-filters="sRGB">
<feFlood flood-opacity="0" result="BackgroundImageFix"/>
<feBlend mode="normal" in="SourceGraphic" in2="BackgroundImageFix" result="shape"/>
<feGaussianBlur stdDeviation="6.4" result="effect1_foregroundBlur_454_3752"/>
</filter>
</defs>
</svg>
