<svg width="1743" height="1288" viewBox="0 0 1743 1288" fill="none" xmlns="http://www.w3.org/2000/svg">
<path d="M759.5 301L734 250.5L635.5 233.5L663.5 369L703 507V533.773C703 557.693 719.318 578.527 742.541 584.258L897.5 622.5L925.5 650.5L1011 628.5L939.5 591.5L849.5 570.5L759.5 529.5L765.5 415.25L759.5 301Z" fill="black"/>
<g filter="url(#filter0_f_454_3803)">
<path d="M718 381.5L720 544.5L965.5 629" stroke="white" stroke-opacity="0.26" stroke-width="10"/>
</g>
<path d="M897.5 448L948 425L970.5 343.5L1154 402.5L1086.52 464.717C1084.53 466.549 1082.16 467.91 1079.57 468.699L1027 484.75L970.5 518L852.5 645L782.75 729.5L735 814L731 873.5L683 797.5L741 721L738 679H753.5L810 608.5L852.5 538L878 493L897.5 448Z" fill="black"/>
<path d="M375.718 272.445L415.5 232L449 163.5L427.5 151L377.486 222.983C375.171 226.314 372.444 229.339 369.369 231.984L333.653 262.707C329.572 266.218 325.013 269.133 320.114 271.365L243 306.5L195.706 314.489C178.073 317.467 160.027 316.961 142.59 312.998C123.973 308.767 107.089 298.961 94.1886 284.888L83.9124 273.677C74.7759 263.71 68.2128 251.662 64.7937 238.58L58.5 214.5V139H40L37 198.25L38.8374 234.538C39.5967 249.535 44.6145 264.005 53.3028 276.252L63.7468 290.974C75.3753 307.366 91.1308 320.393 109.416 328.734L138.5 342H198.5L266.257 332.844C270.395 332.285 274.423 331.096 278.202 329.321L329.405 305.261C346.665 297.152 362.346 286.04 375.718 272.445Z" fill="black"/>
<path d="M418.09 165.14C420.629 157.583 425.54 151.047 432.094 146.508L508.25 93.75L594.5 60L706.026 41.4509C711.824 40.4867 717.711 40.1724 723.579 40.5139L835 47L926.25 60.5L1017.5 90L1088.5 84L1161.25 108.75L1234 119.5L1383 108.75L1364 94L1408.75 94.875L1433.5 103.75L1491.86 99.9676C1506.84 98.9964 1521.88 100.609 1536.32 104.734L1555.69 110.269C1559.7 111.413 1563.46 113.284 1566.79 115.787L1585.28 129.693C1590.25 133.431 1593.65 138.88 1594.84 144.985V144.985C1595.57 148.753 1598.09 151.925 1601.6 153.475L1664.5 181.25L1708.95 196.986C1721.41 201.397 1726.75 216.085 1720.02 227.465L1698.42 264.019C1695.52 268.932 1691.46 273.06 1686.59 276.045L1677.8 281.438C1673.95 283.801 1670.46 286.702 1667.44 290.054V290.054C1661.47 296.658 1652.83 300.198 1643.95 299.678L1578.21 295.834C1574.43 295.613 1570.69 294.825 1567.14 293.499L1538.47 282.796C1536.18 281.942 1533.74 281.591 1531.3 281.766L1479.5 285.5L1389 287L1309.08 308.635C1302.05 310.539 1295.24 313.199 1288.78 316.569L1207.87 358.754C1202.15 361.74 1196.8 365.409 1191.96 369.681L1119 434L1000.5 400.5L1061.07 579.215C1067.72 598.856 1065.95 620.376 1056.17 638.662L1037 674.5L1009.5 710.386C1008.2 712.084 1006.39 713.32 1004.34 713.913L992.997 717.184C985.453 719.36 978.574 723.391 972.989 728.91L960.5 741.25L926.789 753.99C922.567 755.585 918.162 752.123 918.713 747.644L921.5 725L935.862 705.628C940.508 699.362 946.97 694.677 954.371 692.21L972.818 686.061C975.818 685.061 978.301 682.918 979.729 680.097L1017.5 605.5L911.272 395.003C909.773 392.031 907.694 389.388 905.16 387.23L835 327.5L750.5 282.5L671 261.5L694.023 291.522C715.421 319.426 708.859 359.595 679.692 379.238L513 491.5L660.5 570.5L706 612L681 633.5L630 616.5L623 593.5L474.259 529.694C457.721 522.599 447 506.334 447 488.338V473.759C447 463.738 451.296 454.197 458.8 447.554L556 361.5L508.25 356.5L455.782 335.817C434.709 327.51 419.26 309.117 414.716 286.926L403.579 232.536C401.562 222.688 402.186 212.48 405.388 202.951L418.09 165.14Z" fill="black"/>
<g filter="url(#filter1_f_454_3803)">
<path d="M808.993 79L967.635 97L1097.07 132.628L1075.5 210.756H1139.75L1109.46 148.375L1160.41 141.107L1188.41 198.34L1198.5 141.107H1254.5L1242 198.34L1306.5 293.122L1224.67 229.833L1198.5 336.035L994.715 274.953L928.621 377L1039.71 620H1050.31L955.153 336.035H1064.31L1120.02 293.122H1159.95L1163.16 270.108L1120.02 268.291L1130.12 224.988L1089.72 244.368H977.274L967.635 222.263L916.229 249.516L928.621 287.672L994.715 274.953L1017.21 310.989H977.274L879.344 249.516L808.993 229.833L643.133 164.745L692.244 358.5L501.5 491L605.395 336.035L419 293.122V198.34L476 132.628L544 97L440.5 210.756L643.133 293.122L569 116.276H715.653L692.244 177.143L715.653 58L808.993 79Z" fill="white" fill-opacity="0.18"/>
</g>
<g filter="url(#filter2_f_454_3803)">
<path d="M1387.49 237.938L1463.12 261.717L1506.24 262.736L1611.45 270.887L1665.46 271.418C1674.35 271.506 1682.22 265.665 1684.71 257.126C1687.46 247.67 1682.86 237.626 1673.9 233.533L1611.45 205L1587.89 230.305C1581.74 236.909 1573.13 240.66 1564.1 240.66C1547.16 240.66 1532.47 228.933 1528.72 212.41L1520.9 178L1458.16 196.514C1451.28 198.543 1444.21 199.834 1437.06 200.366L1374.73 205C1367.44 217.531 1373.66 233.59 1387.49 237.938Z" fill="white" fill-opacity="0.15"/>
</g>
<g filter="url(#filter3_f_454_3803)">
<path d="M1515.5 110V146.5C1515.5 149.814 1518.19 152.5 1521.5 152.5H1558" stroke="white" stroke-opacity="0.29" stroke-width="18"/>
</g>
<g filter="url(#filter4_f_454_3803)">
<path d="M1515.5 110V146.5C1515.5 149.814 1518.19 152.5 1521.5 152.5H1558" stroke="white" stroke-opacity="0.29" stroke-width="18"/>
</g>
<g filter="url(#filter5_f_454_3803)">
<path d="M796.211 669.043L937.093 462.846" stroke="white" stroke-opacity="0.53" stroke-width="8"/>
</g>
<g filter="url(#filter6_f_454_3803)">
<path fill-rule="evenodd" clip-rule="evenodd" d="M371.792 980.633L407.412 964.224C407.917 968.609 409.096 972.951 410.968 977.093C417.873 992.373 431.865 1003.27 448.371 1006.22L508.25 1016.91L556 1019.18L456.829 1058.96C450.892 1061.34 447 1067.1 447 1073.49C447 1083.13 453.831 1091.42 463.292 1093.26L623 1124.3L630 1134.72L681 1142.42L706 1132.68L660.5 1113.88L513 1078.08L664.066 1031.98C665.584 1031.52 667.029 1030.97 668.4 1030.33L703 1085.1C703 1102.52 716.088 1117.15 733.396 1119.09L813.985 1128.1L810 1131.1L753.5 1163.04H738L741 1182.07L683 1216.73L731 1251.17L735 1224.21L782.75 1185.92L852.5 1147.63L877.9 1135.25L897.5 1137.44L925.5 1150.13L1005.08 1140.85L980.169 1163.14C978.428 1164.7 976.269 1165.72 973.959 1166.07L950.591 1169.6C945.581 1170.35 940.773 1172.1 936.449 1174.75L921.5 1183.88L919.965 1189.54C918.815 1193.77 922.445 1197.76 926.767 1197.02L960.5 1191.25L975.214 1184.66C979.383 1182.79 983.8 1181.54 988.329 1180.95L1005.47 1178.71C1006.81 1178.54 1008.1 1178.09 1009.26 1177.4L1037 1161C1056.38 1144.58 1059.63 1115.91 1044.42 1095.57L1028.86 1074.77L1081.18 1067.53C1082.72 1067.31 1084.22 1066.9 1085.66 1066.31L1138.06 1044.41L1193.74 1022.17C1197.41 1020.71 1201.18 1019.51 1205.02 1018.61L1298.5 996.521L1389 985.419L1479.5 984.74L1533.29 982.983C1534.43 982.946 1535.56 983.023 1536.68 983.212L1572.5 989.271L1650.23 991.331C1655.33 991.466 1660.39 990.339 1664.95 988.05L1667.66 986.692C1670.55 985.243 1673.57 984.077 1676.68 983.211L1688.22 980.004C1692.04 978.942 1695.62 977.156 1698.76 974.743C1711.7 964.823 1706.5 944.239 1690.4 941.657L1664.5 937.503L1598.66 924.328C1597 923.995 1595.6 922.862 1594.93 921.3C1593.7 918.418 1591.31 916.195 1588.34 915.185L1564.97 907.223C1562.83 906.492 1560.62 905.978 1558.37 905.687L1524.79 901.34C1517.94 900.453 1511.03 900.109 1504.13 900.312L1433.5 902.386L1408.75 898.365L1364 897.968L1383 904.652L1234 909.523L1161.25 904.652L1088.5 893.437L1017.5 896.156L926.25 882.789L835 876.672L714.75 873.5L594.5 882.562L508.25 897.855L431.102 922.071C426.666 923.464 422.645 925.884 419.355 929.108L378.16 955.972C375.394 957.776 372.449 959.29 369.372 960.489L331.974 975.067C328.996 976.227 325.927 977.135 322.798 977.781L243 994.255L181.259 998.981C173.103 999.605 164.907 999.498 156.77 998.66L130.844 995.99C119.704 994.843 108.859 991.714 98.8198 986.751L90.6329 982.705C77.1797 976.055 65.9983 965.568 58.5 952.569V918.358H40L37 945.205C38.8974 962.185 48.3677 977.397 62.7664 986.594L66.6537 989.077C76.4685 995.346 87.3467 999.768 98.7518 1002.13L138.5 1010.34H198.5L269.453 1006C271.482 1005.87 273.498 1005.6 275.485 1005.17L337.956 991.873C349.616 989.391 360.964 985.621 371.792 980.633ZM759.5 991.763L750.106 983.333L750.5 983.38L835 1003.77L904.714 1030.66C907.548 1031.76 910.158 1033.36 912.418 1035.39L930.445 1051.57L897.5 1058.37L878 1078.76L852.5 1099.15L836.483 1111.19L759.5 1095.3L765.5 1043.53L759.5 991.763ZM970.5 1090.09L972.692 1089.5L1017.5 1129.74L1006.92 1139.2L939.5 1123.39L908.853 1120.15L970.5 1090.09Z" fill="black" fill-opacity="0.34"/>
</g>
<defs>
<filter id="filter0_f_454_3803" x="684.9" y="353.339" width="310.327" height="308.489" filterUnits="userSpaceOnUse" color-interpolation-filters="sRGB">
<feFlood flood-opacity="0" result="BackgroundImageFix"/>
<feBlend mode="normal" in="SourceGraphic" in2="BackgroundImageFix" result="shape"/>
<feGaussianBlur stdDeviation="14.05" result="effect1_foregroundBlur_454_3803"/>
</filter>
<filter id="filter1_f_454_3803" x="361.7" y="0.700001" width="1002.1" height="676.6" filterUnits="userSpaceOnUse" color-interpolation-filters="sRGB">
<feFlood flood-opacity="0" result="BackgroundImageFix"/>
<feBlend mode="normal" in="SourceGraphic" in2="BackgroundImageFix" result="shape"/>
<feGaussianBlur stdDeviation="28.65" result="effect1_foregroundBlur_454_3803"/>
</filter>
<filter id="filter2_f_454_3803" x="1318.15" y="124.5" width="420.849" height="200.42" filterUnits="userSpaceOnUse" color-interpolation-filters="sRGB">
<feFlood flood-opacity="0" result="BackgroundImageFix"/>
<feBlend mode="normal" in="SourceGraphic" in2="BackgroundImageFix" result="shape"/>
<feGaussianBlur stdDeviation="26.75" result="effect1_foregroundBlur_454_3803"/>
</filter>
<filter id="filter3_f_454_3803" x="1473.1" y="76.6" width="118.3" height="118.3" filterUnits="userSpaceOnUse" color-interpolation-filters="sRGB">
<feFlood flood-opacity="0" result="BackgroundImageFix"/>
<feBlend mode="normal" in="SourceGraphic" in2="BackgroundImageFix" result="shape"/>
<feGaussianBlur stdDeviation="16.7" result="effect1_foregroundBlur_454_3803"/>
</filter>
<filter id="filter4_f_454_3803" x="1473.1" y="76.6" width="118.3" height="118.3" filterUnits="userSpaceOnUse" color-interpolation-filters="sRGB">
<feFlood flood-opacity="0" result="BackgroundImageFix"/>
<feBlend mode="normal" in="SourceGraphic" in2="BackgroundImageFix" result="shape"/>
<feGaussianBlur stdDeviation="16.7" result="effect1_foregroundBlur_454_3803"/>
</filter>
<filter id="filter5_f_454_3803" x="756.408" y="424.09" width="220.488" height="283.711" filterUnits="userSpaceOnUse" color-interpolation-filters="sRGB">
<feFlood flood-opacity="0" result="BackgroundImageFix"/>
<feBlend mode="normal" in="SourceGraphic" in2="BackgroundImageFix" result="shape"/>
<feGaussianBlur stdDeviation="18.25" result="effect1_foregroundBlur_454_3803"/>
</filter>
<filter id="filter6_f_454_3803" x="0.5" y="837" width="1742.05" height="450.672" filterUnits="userSpaceOnUse" color-interpolation-filters="sRGB">
<feFlood flood-opacity="0" result="BackgroundImageFix"/>
<feBlend mode="normal" in="SourceGraphic" in2="BackgroundImageFix" result="shape"/>
<feGaussianBlur stdDeviation="18.25" result="effect1_foregroundBlur_454_3803"/>
</filter>
</defs>
</svg>
