<svg width="1777" height="1233" viewBox="0 0 1777 1233" fill="none" xmlns="http://www.w3.org/2000/svg">
<path d="M743.379 272.7L768.338 262.385L470.24 274.769L414.82 266.665C398.589 264.291 383.462 275.393 380.859 291.589L373.696 336.154L385.553 423.385L397.973 443.846L373.696 471.308L397.973 526.231L414.911 498.769L431.18 444.871C434.577 433.617 434.953 421.667 432.27 410.222L414.911 336.154H486.613L551.054 376.421C562.553 383.607 575.371 388.427 588.756 390.6L599.524 392.348C613.674 394.645 628.167 391.473 640.063 383.475C650.332 376.571 657.765 366.192 660.994 354.247L674.618 303.846L690.058 322.254C696.547 329.99 709.107 326.742 711.032 316.829L712.194 310.846C715.523 293.7 727.237 279.371 743.379 272.7Z" fill="black"/>
<path d="M1023.53 533.769V481.538L1176.53 426.615V494.461L1123.71 512.399C1111.19 516.65 1103.59 529.34 1105.76 542.382L1119.51 625.308L1123.51 737.315C1123.84 746.827 1126.74 756.071 1131.88 764.078L1144.43 783.593C1151.99 795.368 1163.76 803.815 1177.34 807.213L1235.81 821.846L1221.07 839.742C1214.8 847.345 1205.01 851.097 1195.27 849.623L1145.43 842.078C1141.89 841.541 1138.77 839.448 1136.93 836.371L1110.19 791.655C1104.41 781.993 1093.98 776.077 1082.73 776.077H1071.52L1059.66 636.077L1023.53 533.769Z" fill="black"/>
<path d="M66 19L152.945 112.692L222.589 157.27C232.073 163.342 242.992 166.802 254.242 167.304L297.478 169.231L350.033 162.204C355.255 161.506 360.389 160.259 365.351 158.485L432.413 134.5L506.937 84.1538L545.248 67.5454C581.257 51.935 620.556 45.4325 659.674 48.6122L792.847 59.4371C796.826 59.7606 800.773 60.4055 804.648 61.3656L986.883 106.516C996.234 108.833 1005.33 112.082 1014.03 116.216L1268.97 237.301C1278.29 241.729 1288.67 243.444 1298.92 242.251L1378.09 233.038L1472.93 216.615L1498.65 212.5C1536.18 206.494 1574.59 214.96 1606.12 236.186L1653.04 267.769L1730.52 280.404C1745.08 282.779 1752.15 299.567 1743.66 311.64L1730.51 330.371C1726.36 336.27 1720.7 340.94 1714.12 343.886L1696.51 351.769L1662.63 356.077L1698.38 370.618C1699.91 371.24 1700.78 372.867 1700.44 374.482V374.482C1698.21 385.126 1688.27 392.348 1677.46 391.188L1626.22 385.692L1567.56 377.288C1566.58 377.148 1565.59 377.099 1564.6 377.141L1441.88 382.462L1243.15 445.462L1205.89 476.154L1165.24 501.462L1016.19 486.923L957.473 477.769L764.951 661.385H576.945L635.662 612.385H746.884L829.877 508.192L902.708 404H934.325L877.585 335.077L833.574 296.652C825.198 289.34 815.263 284.037 804.526 281.149L754.788 267.769L720.435 261.428C708.435 259.213 696.13 259.213 684.13 261.428L654.039 266.982C651.262 267.495 648.705 268.835 646.704 270.827L545.849 371.217C529.829 387.163 507.399 394.913 484.951 392.258L447.656 387.846L295.784 332.923L237.068 457.308L177.787 525.154L152.945 477.769L202.628 433.615L270.943 267.769L355.064 283.405C357.883 283.929 360.741 284.214 363.607 284.258L447.656 285.538L448.786 215.808L470.24 146.077L422.674 170.981L375.108 185.115L306.361 193.749C299.328 194.632 292.224 194.801 285.157 194.252L248.245 191.389C240.646 190.8 233.175 189.1 226.07 186.344L189.375 172.11C181.695 169.131 174.514 164.998 168.08 159.853L119.318 120.86C109.52 113.024 101.813 102.884 96.8869 91.3454L66 19Z" fill="black"/>
<g filter="url(#filter0_f_454_3778)">
<path d="M1420.02 303.921L1495.94 327.717L1539.19 328.736L1644.72 336.887L1704.13 337.402C1714.53 337.493 1723 329.091 1723 318.696C1723 311.365 1718.72 304.71 1712.05 301.671L1644.72 271L1621.09 296.298C1614.92 302.908 1606.28 306.66 1597.24 306.66C1580.23 306.66 1565.48 294.897 1561.71 278.315L1553.89 244L1490.9 262.532C1484.04 264.549 1476.99 265.832 1469.86 266.361L1407.27 271C1399.96 283.52 1406.18 299.585 1420.02 303.921Z" fill="white" fill-opacity="0.15"/>
</g>
<g filter="url(#filter1_f_454_3778)">
<path d="M515.5 148L489.639 301.41C487.578 313.641 476.536 322.286 464.167 321.352L300.5 309" stroke="white" stroke-opacity="0.72" stroke-width="20"/>
</g>
<g filter="url(#filter2_f_454_3778)">
<path d="M863.302 95.3958L1019.19 177.771L1128.75 193.31L1074.46 306.357L1141.07 324.224L1135.16 220.749L1190.94 223.841L1196.57 318.833L1230.43 234.433L1288.47 250.002L1236.49 443.797L1221.29 376.902L1165.26 435.572L964.487 381.717L868.779 494.139L758.5 611L771.651 633.917L903.779 494.139L1019.19 428.572L1086.94 444.242L1128.33 455.344L1141.07 421.17L1097.09 406.405L1125.26 343.23L1075.47 361.531L958.909 330.264L957.953 293.901L893.529 321.135L890.779 382.719L964.487 381.717L973.071 442.879L931.68 431.776L855.296 310.88L790.419 261.327L645.1 116.033L559.482 91.6948L586.941 138.574L645.1 177.77L608.836 94.9006L678.591 57.7199L740.08 62.3428L690.939 148.579L771.651 138.574L863.302 95.3958Z" fill="white" fill-opacity="0.18"/>
</g>
<g filter="url(#filter3_f_454_3778)">
<path d="M714.009 232.009L752 270L661.043 257.06C642.489 254.421 623.575 257.706 606.998 266.447L605 267.5L565 298L519 340.5L585.391 259.281C605.713 234.42 636.125 220 668.235 220H685.017C695.891 220 706.32 224.32 714.009 232.009Z" fill="white" fill-opacity="0.45"/>
</g>
<g filter="url(#filter4_f_454_3778)">
<path d="M635.5 300V342.5C635.5 345.814 632.814 348.5 629.5 348.5H563" stroke="white" stroke-opacity="0.21" stroke-width="20"/>
</g>
<g filter="url(#filter5_f_454_3778)">
<path d="M1573 219V255.5C1573 258.814 1575.69 261.5 1579 261.5H1615.5" stroke="white" stroke-opacity="0.29" stroke-width="18"/>
</g>
<g filter="url(#filter6_f_454_3778)">
<path fill-rule="evenodd" clip-rule="evenodd" d="M120.945 921.262L34 886L59.9364 908.864C68.143 916.099 77.8148 921.476 88.2907 924.629L140.061 940.21C143.873 941.357 147.765 942.222 151.704 942.797L204.786 950.546L263.784 952.269L343.108 948.52L390.674 943.2L438.24 933.827L416.786 960.071L415.884 981.031L374.537 978.755C366.63 978.32 359.083 981.019 353.333 985.958L327.3 985.809L238.943 979.628L170.628 1042.05L120.945 1058.66L145.787 1076.5L205.068 1050.96L263.784 1004.15L268.227 1004.75L268.216 1005.14L271.815 1005.24L345.263 1015.24L353.552 1038.19L365.973 1045.9L341.696 1056.23L365.973 1076.9L382.911 1066.57C393.233 1053.7 396.126 1036.72 391.239 1021.5L415.656 1024.82L473.389 1027.39C483.352 1027.83 493.301 1026.26 502.64 1022.76L512.646 1019.01L527.521 1022.51C533.481 1023.91 539.549 1024.8 545.659 1025.18L578.235 1027.17C585.731 1027.63 593.253 1026.92 600.534 1025.08C615.68 1021.25 628.985 1012.19 638.099 999.496L642.618 993.204L667.477 1004.36C671.267 1006.06 675.725 1004.5 677.63 1000.81C682.592 991.19 691.849 984.52 702.543 982.857L718.438 980.384L720 980.468L719.386 980.237L723.099 979.659L780.948 985.516C786.197 986.047 791.372 987.146 796.384 988.793L829.968 999.828L859.433 1017.38L858.779 1022.89L868.601 1022.84L882.129 1030.9H870.708L797.878 1070.11L714.884 1109.33H603.662L544.945 1127.77H732.951L925.473 1058.66L984.189 1062.11L991.529 1062.38V1079.74L1027.66 1118.25L1039.52 1170.94H1059.64C1065.68 1170.94 1071.58 1172.64 1076.69 1175.86L1105.21 1193.81C1106.93 1194.89 1108.9 1195.52 1110.92 1195.64L1172.05 1199.12C1176.59 1199.38 1181.13 1198.52 1185.28 1196.63L1203.81 1188.16L1135.71 1181.75C1128.13 1181.03 1120.8 1178.67 1114.24 1174.83C1100.29 1166.66 1091.12 1152.28 1089.59 1136.19L1088.58 1125.47C1087.87 1118 1085.97 1110.69 1082.94 1103.83C1076.48 1089.18 1085.94 1072.44 1101.82 1070.41L1126.01 1067.32L1133.24 1067.58L1144.41 1064.96L1144.53 1064.95V1064.93L1173.89 1058.06L1211.15 1046.5L1409.88 1022.79L1534.09 1020.77L1594.22 1024.01L1657.78 1026.57C1661.91 1026.74 1665.78 1024.57 1667.79 1020.96C1668.39 1019.89 1667.73 1018.54 1666.51 1018.36L1630.63 1012.86L1664.51 1011.24L1688.57 1007.19C1690.96 1006.79 1693.26 1006 1695.39 1004.86C1705.29 999.554 1702.02 984.598 1690.81 983.91L1621.04 979.628L1583.5 970.117V968.266H1576.2L1550 961.629V961.271H1548.59L1547.65 961.034C1532.68 957.24 1517.21 955.781 1501.79 956.71L1440.93 960.375L1422.08 961.604L1394.63 954.067C1391.32 953.16 1389.14 957.427 1391.81 959.575C1393.06 960.584 1392.18 962.603 1390.59 962.369L1384.12 961.417C1382.36 961.157 1381.44 962.939 1381.98 964.217L1346.09 966.556L1257.32 970.444C1253.28 970.621 1249.22 970.351 1245.24 969.639L968.945 920.249L766.826 901.402L591.135 896.027C575.81 895.558 560.474 896.565 545.341 899.034L474.937 910.522L400.413 929.47L325.888 939.501L265.478 942.541L212.123 941.646C207.434 941.568 202.767 940.974 198.208 939.875L120.945 921.262ZM868.601 1022.84L859.433 1017.38L860.118 1011.6L884.519 1022.76L868.601 1022.84ZM655.438 977.011L621.006 979.403L682.235 978.446L655.438 977.011Z" fill="black" fill-opacity="0.34"/>
</g>
<defs>
<filter id="filter0_f_454_3778" x="1350.68" y="190.5" width="425.817" height="200.402" filterUnits="userSpaceOnUse" color-interpolation-filters="sRGB">
<feFlood flood-opacity="0" result="BackgroundImageFix"/>
<feBlend mode="normal" in="SourceGraphic" in2="BackgroundImageFix" result="shape"/>
<feGaussianBlur stdDeviation="26.75" result="effect1_foregroundBlur_454_3778"/>
</filter>
<filter id="filter1_f_454_3778" x="253.947" y="100.538" width="317.213" height="276.684" filterUnits="userSpaceOnUse" color-interpolation-filters="sRGB">
<feFlood flood-opacity="0" result="BackgroundImageFix"/>
<feBlend mode="normal" in="SourceGraphic" in2="BackgroundImageFix" result="shape"/>
<feGaussianBlur stdDeviation="22.9" result="effect1_foregroundBlur_454_3778"/>
</filter>
<filter id="filter2_f_454_3778" x="502.182" y="0.420704" width="843.593" height="690.795" filterUnits="userSpaceOnUse" color-interpolation-filters="sRGB">
<feFlood flood-opacity="0" result="BackgroundImageFix"/>
<feBlend mode="normal" in="SourceGraphic" in2="BackgroundImageFix" result="shape"/>
<feGaussianBlur stdDeviation="28.65" result="effect1_foregroundBlur_454_3778"/>
</filter>
<filter id="filter3_f_454_3778" x="482.5" y="183.5" width="306" height="193.5" filterUnits="userSpaceOnUse" color-interpolation-filters="sRGB">
<feFlood flood-opacity="0" result="BackgroundImageFix"/>
<feBlend mode="normal" in="SourceGraphic" in2="BackgroundImageFix" result="shape"/>
<feGaussianBlur stdDeviation="18.25" result="effect1_foregroundBlur_454_3778"/>
</filter>
<filter id="filter4_f_454_3778" x="532" y="269" width="144.5" height="120.5" filterUnits="userSpaceOnUse" color-interpolation-filters="sRGB">
<feFlood flood-opacity="0" result="BackgroundImageFix"/>
<feBlend mode="normal" in="SourceGraphic" in2="BackgroundImageFix" result="shape"/>
<feGaussianBlur stdDeviation="15.5" result="effect1_foregroundBlur_454_3778"/>
</filter>
<filter id="filter5_f_454_3778" x="1530.6" y="185.6" width="118.3" height="118.3" filterUnits="userSpaceOnUse" color-interpolation-filters="sRGB">
<feFlood flood-opacity="0" result="BackgroundImageFix"/>
<feBlend mode="normal" in="SourceGraphic" in2="BackgroundImageFix" result="shape"/>
<feGaussianBlur stdDeviation="16.7" result="effect1_foregroundBlur_454_3778"/>
</filter>
<filter id="filter6_f_454_3778" x="0.599998" y="852.6" width="1734.09" height="379.964" filterUnits="userSpaceOnUse" color-interpolation-filters="sRGB">
<feFlood flood-opacity="0" result="BackgroundImageFix"/>
<feBlend mode="normal" in="SourceGraphic" in2="BackgroundImageFix" result="shape"/>
<feGaussianBlur stdDeviation="16.7" result="effect1_foregroundBlur_454_3778"/>
</filter>
</defs>
</svg>
