<svg width="1429" height="1190" viewBox="0 0 1429 1190" fill="none" xmlns="http://www.w3.org/2000/svg">
<g filter="url(#filter0_f_454_4218)">
<path fill-rule="evenodd" clip-rule="evenodd" d="M1188.01 648.257L1216.79 651.924C1255.77 656.888 1293.87 669.763 1327.97 689.271L1395.02 701.728C1407.77 704.098 1410.14 721.356 1398.49 727.07C1391.11 730.689 1382.97 732.418 1374.8 732.129C1374.77 732.161 1374.75 732.192 1374.73 732.224C1374.67 732.289 1374.62 732.354 1374.56 732.419C1373.64 733.426 1372.04 734.037 1370.77 733.864L1304.69 724.843L1262.1 720.343H1234.07C1233.66 720.343 1233.25 720.375 1232.86 720.438L1250.56 726.85L1291.77 733.343C1309.06 736.066 1323.56 747.853 1329.76 764.22C1333.16 773.215 1327.83 783.144 1318.45 785.268L1300.96 789.227C1298.95 789.682 1296.85 789.194 1295.24 787.904C1290.97 784.466 1287.83 780.115 1285.9 775.342L1226.43 755.143L1198.98 770.057L1156.45 809.829L1104.46 840.76V858.313L1089.12 849.89L1066.39 863.412C1063.77 864.972 1061.3 866.769 1059 868.78L998.644 921.686L989.744 928.236C981.25 934.486 974.903 943.217 971.576 953.224L957.479 995.636L946.501 1072.07L949.52 1085.74H981.819C990.159 1085.74 998.366 1087.83 1005.69 1091.81L1007.1 1092.57C1011.75 1095.1 1013.96 1100.57 1012.37 1105.63H968.448L998.644 1110.6C1006.28 1115.98 1002.48 1128 993.131 1128H918.899C910.784 1128 903.565 1122.85 900.929 1115.17L886.125 1072.07L879.432 1069.04C873.249 1066.24 871.593 1058.23 876.159 1053.2L886.125 1042.24L866.914 912.986H732.44L679.742 908.911C639.947 905.834 600.523 899.07 561.978 888.705L545.021 884.146L529.294 881.332L468.73 895.595C465.28 896.407 461.693 896.445 458.226 895.707L452.47 894.48C451.63 919.894 438.626 943.43 417.423 957.656L378.415 983.827L355.088 1001.85L339.35 1018.2C334.481 1023.26 331.761 1030.01 331.761 1037.03C331.761 1048.16 336.886 1058.68 345.657 1065.54L361.949 1078.28H383.904L425.07 1094.44L318.039 1100.66V1084.5L288.371 1056.67C282.552 1051.21 277.34 1045.14 272.822 1038.56L264.099 1025.86C261.949 1022.74 262.295 1018.53 264.925 1015.79L311.178 967.67L307.732 960.876L296.084 968.914L197.286 1019.87L172.587 1048.46L150.632 1095.69L186.309 1099.41L197.286 1110.6L186.309 1118.06H106.722V1095.69L125.933 1019.87L169.84 983.637C169.716 978.788 165.002 975.352 160.324 976.764L143.02 981.988C139.977 982.907 136.91 980.629 136.91 977.45C136.91 975.626 135.217 974.274 133.438 974.676L93 983.833C103.639 970.984 118.448 962.272 134.847 959.214L156.121 955.247L189.053 939.09L192.954 933.438L197.286 904.286L171.215 859.543L169.843 827.229L173.285 821.513C181.761 807.437 194.367 796.312 209.387 789.652L227.387 781.67C243.839 774.375 261.187 769.3 278.976 766.578L353.716 755.143L452.513 752.036L584.243 755.454L715.973 758.25L827.121 750.793L946.501 735.257L1039.81 696.729L1063.87 680.673C1082.43 668.282 1103.12 659.401 1124.89 654.471L1155.07 624.643V606C1172.84 612.898 1185.45 628.931 1187.95 647.829L1188.01 648.257ZM1284.73 755.239C1285.59 752.15 1286.94 749.147 1288.79 746.342L1289.55 745.204L1288.55 744.859L1279.19 753.34L1284.73 755.239Z" fill="black" fill-opacity="0.31"/>
</g>
<path d="M1123.45 246.496L1178.34 291.829L1200.29 308.829L1178.34 354.163L1085.03 291.829L1123.45 246.496Z" fill="#AA061A"/>
<path d="M360.514 705.398V651.663L333.07 606.33L195.851 719.663L219.178 824.497L169.527 942.257C168.803 943.974 168.701 945.89 169.239 947.674L185.297 1000.96C186.842 1006.09 188.757 1011.1 191.026 1015.95L226.039 1090.83V1127.66L333.07 1113.5L291.904 1076.66H269.949L252.539 1045.62C244.161 1030.68 239.761 1013.83 239.761 996.705V972.847C239.761 962.826 241.769 952.907 245.667 943.675L263.088 902.413L286.415 861.33L337.202 783.651C352.413 760.387 360.514 733.194 360.514 705.398Z" fill="black" stroke="#000AFF"/>
<path d="M97.0532 759.335L110.775 714.002L143.708 736.669L77.8425 861.335V855.789C77.8425 848.54 69.711 844.265 63.7399 848.375L52.7448 855.943C49.4275 858.226 44.91 855.851 44.91 851.824V843.593C44.91 841.346 42.5307 839.897 40.5339 840.928L1 861.335L5.58867 848.702C13.1644 827.845 29.0625 811.072 49.4838 802.391L64.1207 796.169L97.0532 759.335Z" fill="black" stroke="#000AFF"/>
<path d="M1101.53 97.9385L1096.01 96.3333L1093.96 61.2094C1092.64 38.3523 1082.25 16.9684 1065.1 1.79525L1063.07 0V42.5L1032.89 110.5C1011.3 121.645 992.942 138.167 979.597 158.471L947.81 206.833L854.501 294.667L735.12 330.083L623.973 347.083L492.243 340.708L360.513 332.917L261.716 340L204.571 359.931C175.359 370.12 148.863 386.851 127.106 408.845L109.327 426.818C99.4869 436.765 92.428 449.119 88.8545 462.647L77.8423 504.333L79.2145 578L105.286 680L95.6808 827.333L33.9323 943.5L14.7217 1116.33V1167.33H94.3086L105.286 1150.33L94.3086 1124.83L58.6317 1116.33L80.5867 1008.67L105.286 943.5L204.084 827.333L261.716 736.667L324.836 640.333L360.458 657.64C367.387 661.006 375.511 660.842 382.298 657.198L440.1 626.167C498.128 661.737 562.334 686.066 629.363 697.881L640.44 699.833H774.914L794.125 994.5L777.312 1036.65C775.853 1040.31 776.677 1044.49 779.417 1047.32L794.125 1062.5L810.899 1173.83C812.299 1183.13 820.287 1190 829.687 1190H911.536C920.167 1190 925.436 1180.51 920.874 1173.19L906.644 1150.33L861.362 1133.33L854.501 1062.5L865.478 888.25L883.225 766.539C884.192 759.911 886.454 753.539 889.883 747.785L906.644 719.667L968.53 596.005C969.808 593.451 971.303 591.011 972.998 588.712L1064.45 464.667L1106.98 374L1134.43 340L1200.29 391L1235.97 374L1140.58 299.471C1136.7 296.439 1134.43 291.788 1134.43 286.863V272.667C1134.43 266.039 1139.8 260.667 1146.43 260.667H1170.1L1249.47 279.786C1276.65 286.333 1305.22 277.417 1323.86 256.578C1333.24 246.077 1329.52 229.459 1316.55 223.965L1235.97 189.833C1202.1 145.658 1154.99 113.461 1101.53 97.9385Z" fill="black"/>
<path d="M878.63 1093.67H846.268V1139H920.366L922.34 1124.74C922.832 1121.19 921.832 1117.59 919.578 1114.79L917.537 1112.27C908.045 1100.51 893.743 1093.67 878.63 1093.67Z" fill="black"/>
<path d="M1197.55 317.334L1133.06 266.334L1183.55 284.465C1210.83 294.263 1230.68 318.055 1235.43 346.653L1241.1 380.823C1242.95 391.955 1237.41 403.009 1227.38 408.185L1221.32 411.311C1212.68 415.771 1202.06 412.512 1197.41 403.974C1186.95 384.775 1184.51 362.218 1190.61 341.223L1197.55 317.334Z" fill="#FA122E" stroke="#000AFF"/>
<g filter="url(#filter1_f_454_4218)">
<path d="M394.002 357.871L629.895 393.369L780.624 381.248L748.856 492.935H843.484L798.873 403.758L873.9 393.369L915.13 475.186L930 393.369H1012.46V575.185L968.527 520.207L915.13 584.709L873.224 730.929L843.484 997.333L814.419 1020L798.873 762.166L780.624 659.167L814.419 610.683H873.224L877.955 577.783L814.419 575.185L829.29 513.281L769.809 540.986H604.211L590.017 509.385L514.315 548.346L532.564 602.891H692.755L663.015 636.224L569.739 681.678L426.446 623.237L361.558 584.709L247.994 636.224L184.47 793.333L77.8423 951.999L135.804 730.929V602.891V509.385L184.47 444.883L287.884 417.178L394.002 357.871Z" fill="white" fill-opacity="0.18"/>
</g>
<g filter="url(#filter2_f_454_4218)">
<path d="M998.071 188.07L1074.35 222.734L1113.88 235.924L1209.76 270.002L1276.37 290.732C1278.98 291.544 1281.74 290.229 1282.76 287.693C1283.78 285.124 1282.67 282.159 1280.2 280.883L1216.47 247.952L1190.32 249.515C1185.03 249.831 1179.71 249.15 1174.64 247.506L1167.29 245.124C1151.98 240.159 1140.15 227.621 1135.98 211.934L1066.6 197.373L998.867 177.413C993.732 178.714 993.198 185.856 998.071 188.07Z" fill="white" fill-opacity="0.29"/>
</g>
<g filter="url(#filter3_f_454_4218)">
<path d="M1167.36 150.166V158.333C1167.36 161.646 1170.05 164.333 1173.36 164.333H1182.45" stroke="white" stroke-opacity="0.58" stroke-width="18"/>
</g>
<g filter="url(#filter4_f_454_4218)">
<path d="M300.137 711.168L278.503 795.546C276.464 803.496 273.635 811.223 270.058 818.61L222.705 916.384C219.481 923.043 217.806 930.344 217.806 937.742V1028.5" stroke="white" stroke-opacity="0.71" stroke-width="3"/>
</g>
<defs>
<filter id="filter0_f_454_4218" x="70.3" y="583.3" width="1358.43" height="567.4" filterUnits="userSpaceOnUse" color-interpolation-filters="sRGB">
<feFlood flood-opacity="0" result="BackgroundImageFix"/>
<feBlend mode="normal" in="SourceGraphic" in2="BackgroundImageFix" result="shape"/>
<feGaussianBlur stdDeviation="11.35" result="effect1_foregroundBlur_454_4218"/>
</filter>
<filter id="filter1_f_454_4218" x="20.5423" y="300.571" width="1049.22" height="776.729" filterUnits="userSpaceOnUse" color-interpolation-filters="sRGB">
<feFlood flood-opacity="0" result="BackgroundImageFix"/>
<feBlend mode="normal" in="SourceGraphic" in2="BackgroundImageFix" result="shape"/>
<feGaussianBlur stdDeviation="28.65" result="effect1_foregroundBlur_454_4218"/>
</filter>
<filter id="filter2_f_454_4218" x="941.2" y="123.912" width="395.438" height="220.559" filterUnits="userSpaceOnUse" color-interpolation-filters="sRGB">
<feFlood flood-opacity="0" result="BackgroundImageFix"/>
<feBlend mode="normal" in="SourceGraphic" in2="BackgroundImageFix" result="shape"/>
<feGaussianBlur stdDeviation="26.75" result="effect1_foregroundBlur_454_4218"/>
</filter>
<filter id="filter3_f_454_4218" x="1124.96" y="116.766" width="90.8942" height="89.966" filterUnits="userSpaceOnUse" color-interpolation-filters="sRGB">
<feFlood flood-opacity="0" result="BackgroundImageFix"/>
<feBlend mode="normal" in="SourceGraphic" in2="BackgroundImageFix" result="shape"/>
<feGaussianBlur stdDeviation="16.7" result="effect1_foregroundBlur_454_4218"/>
</filter>
<filter id="filter4_f_454_4218" x="193.606" y="688.095" width="130.684" height="363.107" filterUnits="userSpaceOnUse" color-interpolation-filters="sRGB">
<feFlood flood-opacity="0" result="BackgroundImageFix"/>
<feBlend mode="normal" in="SourceGraphic" in2="BackgroundImageFix" result="shape"/>
<feGaussianBlur stdDeviation="11.35" result="effect1_foregroundBlur_454_4218"/>
</filter>
</defs>
</svg>
