<svg width="1758" height="1168" viewBox="0 0 1758 1168" fill="none" xmlns="http://www.w3.org/2000/svg">
<path d="M1060.17 554.153L1059.82 532.471C1059.61 519.602 1056.99 506.886 1052.09 494.982L1044.89 477.456C1042.31 471.175 1040.55 464.589 1039.65 457.858L1026 355.496L943.5 338.996L968.5 432.496L1017 555.996L972.5 597.996L950.178 594.648C938.699 592.926 926.971 594.949 916.732 600.416L881 619.496L879 637.496L939.25 640.496L979.284 636.149C989.172 635.075 998.465 630.891 1005.83 624.2L1045.45 588.182C1055.02 579.482 1060.38 567.085 1060.17 554.153Z" fill="black"/>
<path d="M449.476 384.466L423.5 316.496L464.5 293.996L721 516.496L622 617.996L536 679.496L595.081 757.96C597.847 761.632 601.115 764.898 604.791 767.659L644.5 797.496L696.5 808.496V827.996C696.5 839.042 687.546 847.996 676.5 847.996H636.709C626.017 847.996 615.771 843.716 608.256 836.111L465.381 691.52C458.607 684.664 458.039 673.822 464.06 666.296L483.5 641.996L524.5 594.996L588 497.996L539.792 472.965C537.275 471.658 534.943 470.023 532.857 468.101L461.791 402.634C456.338 397.61 452.123 391.392 449.476 384.466Z" fill="black"/>
<path d="M480.526 201.29C485.797 195.146 492.153 190.025 499.278 186.182L591.067 136.664C598.619 132.59 606.882 130.004 615.409 129.048L758.5 112.996L1136.93 25.8869C1149.4 23.0148 1162.43 23.6198 1174.59 27.636L1212 39.9961L1408.5 56.4961L1474.75 50.4961L1525.99 55.1369C1535.82 56.0272 1545.24 59.4999 1553.3 65.2033L1586.92 89.0091C1593.69 93.7996 1598.26 101.101 1599.6 109.282L1599.76 110.252C1602.18 124.942 1609.7 138.308 1621 147.996V147.996L1711.9 204.292C1716.11 206.896 1717.42 212.403 1714.85 216.626L1703.62 235.066C1696.74 246.358 1686.27 255.012 1673.88 259.639L1647.5 269.496V269.496C1647.5 278.221 1642.1 286.035 1633.93 289.115L1627.92 291.385C1623.45 293.07 1618.53 293.103 1614.05 291.478L1574.75 277.246L1528.5 252.496L1451 240.496L1389.89 232.858C1387.97 232.618 1386.03 232.632 1384.11 232.901L1308.5 243.496L1268.58 260.238C1255.2 265.846 1246.5 278.933 1246.5 293.437V299.194C1246.5 318.655 1240.93 337.71 1230.46 354.11L1212 382.996L1288.5 408.996L1376.25 457.246L1424.81 472.879C1448.9 480.635 1466.69 501.129 1470.98 526.072L1474.5 546.496L1471.55 597.972C1471.19 604.201 1469.12 610.212 1465.58 615.346L1414.88 688.752C1412.42 692.315 1406.91 691.279 1405.91 687.066L1398.82 657.204C1394.81 640.312 1402.75 622.851 1418.12 614.781L1432 607.496V528.996L1171 454.496L1131 419.496L1118 382.996L949.356 388.828C946.149 388.939 942.95 388.431 939.934 387.333L880 365.496L734 355.996L767.5 408.996L818.5 641.996L936.75 689.746L1026 712.496L1045.08 728.94C1049.61 732.848 1048.4 740.168 1042.85 742.415L994.5 761.996L748.326 671.748C739.958 668.68 734.847 660.208 736.036 651.374L741 614.496L708.5 544.996L627.5 457.496L431 346.996L342.5 472.996L232 544.996L156.5 561.496L118.75 557.246L81 536.996L53 502.496L59 438.996L71 443.996V492.996L89.3524 513.837C96.6049 522.073 106.235 527.854 116.914 530.384L138.5 535.496L176.5 526.496L213.586 517.86C225.237 515.146 236.203 510.06 245.799 502.918L286 472.996L349.446 407.477C358.091 398.549 365.233 388.278 370.592 377.065L416.975 280.011C420.31 273.032 424.552 266.522 429.589 260.652L480.526 201.29Z" fill="black"/>
<g filter="url(#filter0_f_454_3842)">
<path d="M874.217 110.548L1047.87 78.9436L1157.58 57.9425L1157.58 204.334L1225.13 190.414L1173.42 100.59L1224.66 78.324L1272.31 160.691L1264.7 70.0717L1323.56 57.9419L1364.06 254.458L1320.45 201.498L1264.7 204.334L1093.12 321.026L1230.61 450.497L1364.06 483.201L1434.5 506.202L1364.06 464.497L1185.71 400.332L1219.53 291.541L1219.53 214.493L1183.24 253.188L1065.04 277.547L1047.87 245.479L1002.52 298.725L1027.69 354.995L1093.12 321.026L883.535 321.026L811.684 321.026L688.473 226.899L601.037 243.566L566.655 224.284L601.037 160.692L646.583 224.285L692.238 159.758L749.264 136.299L744.042 235.417L811.684 190.26L874.217 110.548Z" fill="white" fill-opacity="0.16"/>
</g>
<g filter="url(#filter1_f_454_3842)">
<path d="M1372.52 188.417L1448.44 212.213L1491.69 213.232L1597.22 221.383L1656.63 221.898C1667.03 221.989 1675.5 213.587 1675.5 203.192C1675.5 195.861 1671.22 189.206 1664.55 186.167L1597.22 155.496L1573.59 180.794C1567.42 187.404 1558.78 191.156 1549.74 191.156C1532.73 191.156 1517.98 179.393 1514.21 162.811L1506.39 128.496L1443.4 147.028C1436.54 149.045 1429.49 150.329 1422.36 150.857L1359.77 155.496C1352.46 168.016 1358.68 184.081 1372.52 188.417Z" fill="white" fill-opacity="0.15"/>
</g>
<g filter="url(#filter2_f_454_3842)">
<path d="M1518.5 78.4961V114.996C1518.5 118.31 1521.19 120.996 1524.5 120.996H1561" stroke="white" stroke-opacity="0.29" stroke-width="18"/>
</g>
<g filter="url(#filter3_f_454_3842)">
<path d="M498 308.496L684.605 406.061C691.317 409.57 696.566 415.346 699.42 422.362L779 617.996" stroke="white" stroke-opacity="0.65" stroke-width="11"/>
</g>
<g filter="url(#filter4_f_454_3842)">
<path fill-rule="evenodd" clip-rule="evenodd" d="M494.602 901.604C490.543 902.31 486.559 903.394 482.702 904.842L431.683 924.003C425.25 926.419 419.122 929.58 413.424 933.422L375.548 958.962C366.89 964.8 357.476 969.432 347.567 972.73L286 993.219L238.054 1004.72C233.525 1005.8 228.917 1006.53 224.273 1006.87L176.5 1010.46L138.5 1013.36L107.803 1011.02C102.957 1010.65 98.1857 1009.61 93.6221 1007.94L71 999.664V983.873L59 982.262L53 1002.73L81 1013.84L118.75 1020.37L156.5 1021.74L232 1016.42L342.5 993.219L431 952.614L436.293 953.574L445.832 961.617C450.89 965.882 456.773 969.055 463.115 970.937L536 992.574L588 1001.28L524.5 1032.53L483.5 1047.68C473.305 1051.79 473.799 1066.38 484.249 1069.79L613.956 1112.09C617.96 1113.4 622.146 1114.06 626.358 1114.06H683.771C690.801 1114.06 696.5 1108.37 696.5 1101.34L644.5 1097.79L603.232 1087.8C600.582 1087.16 597.99 1086.29 595.484 1085.22L536 1059.76L622 1039.95L701.051 1013.83L708.5 1016.42L741 1038.82C737.492 1047.22 742.996 1056.64 752.035 1057.71L994.5 1086.35L1025.15 1082.35C1031.76 1081.49 1032.42 1072.18 1026 1070.4L936.75 1063.07L818.5 1047.68L767.5 972.594L734 955.515L880 958.576L944.5 966.149L956.756 966.013L968.5 980.167L1017 1019.97L972.5 1033.5L938.422 1031.85C934.486 1031.66 930.541 1031.9 926.657 1032.57L881 1040.43L879 1046.23L939.25 1047.2L988.598 1045.47C992.517 1045.33 996.404 1044.7 1000.17 1043.6L1052.3 1028.33C1057.11 1026.92 1060.32 1022.4 1060.07 1017.39C1059.71 1010.22 1056.26 1003.57 1050.61 999.137L1046.67 996.05C1042.95 993.137 1040.05 989.314 1038.25 984.951L1030.07 965.196L1118 964.216L1131 975.978L1171 987.257L1432 1011.26V1036.56L1417.72 1038.98C1405.93 1040.97 1400.38 1054.7 1407.47 1064.33C1408.07 1065.14 1409.16 1065.42 1410.07 1064.99L1455 1044.03C1465.03 1039.35 1472.15 1030.08 1474.1 1019.18L1474.5 1016.9C1467.93 1004.61 1455.69 996.385 1441.83 994.947L1376.25 988.143L1288.5 972.594L1212 964.216L1235.09 952.567C1242.09 949.039 1246.5 941.873 1246.5 934.04C1246.5 930.374 1249.21 927.273 1252.84 926.783L1308.5 919.261L1350.22 917.377L1364.06 922.793L1360.3 916.922L1387 915.716L1451 918.294L1528.5 922.161L1574.75 930.137L1618.63 935.259C1620.21 935.442 1621.79 935.438 1623.37 935.247L1642.86 932.876C1645.51 932.554 1647.5 930.307 1647.5 927.64L1684.01 923.243C1689.95 922.528 1695.71 920.727 1701 917.929C1707.19 914.654 1705.85 905.418 1698.98 904.047L1621 888.486L1611.95 885.986C1606.57 884.499 1602.05 880.819 1599.52 875.844C1598.24 873.338 1595.91 871.528 1593.17 870.902L1546.34 860.218C1542.79 859.408 1539.17 858.946 1535.52 858.839L1474.75 857.066L1408.5 858.999L1212 853.682L1162.29 848.389C1158.1 847.944 1153.89 847.877 1149.7 848.188L758.5 877.207L602.5 882.846L494.602 901.604Z" fill="black" fill-opacity="0.34"/>
</g>
<defs>
<filter id="filter0_f_454_3842" x="509.355" y="0.641407" width="982.445" height="562.86" filterUnits="userSpaceOnUse" color-interpolation-filters="sRGB">
<feFlood flood-opacity="0" result="BackgroundImageFix"/>
<feBlend mode="normal" in="SourceGraphic" in2="BackgroundImageFix" result="shape"/>
<feGaussianBlur stdDeviation="28.65" result="effect1_foregroundBlur_454_3842"/>
</filter>
<filter id="filter1_f_454_3842" x="1303.18" y="74.9961" width="425.816" height="200.402" filterUnits="userSpaceOnUse" color-interpolation-filters="sRGB">
<feFlood flood-opacity="0" result="BackgroundImageFix"/>
<feBlend mode="normal" in="SourceGraphic" in2="BackgroundImageFix" result="shape"/>
<feGaussianBlur stdDeviation="26.75" result="effect1_foregroundBlur_454_3842"/>
</filter>
<filter id="filter2_f_454_3842" x="1476.1" y="45.0961" width="118.3" height="118.3" filterUnits="userSpaceOnUse" color-interpolation-filters="sRGB">
<feFlood flood-opacity="0" result="BackgroundImageFix"/>
<feBlend mode="normal" in="SourceGraphic" in2="BackgroundImageFix" result="shape"/>
<feGaussianBlur stdDeviation="16.7" result="effect1_foregroundBlur_454_3842"/>
</filter>
<filter id="filter3_f_454_3842" x="442.452" y="250.623" width="394.643" height="422.445" filterUnits="userSpaceOnUse" color-interpolation-filters="sRGB">
<feFlood flood-opacity="0" result="BackgroundImageFix"/>
<feBlend mode="normal" in="SourceGraphic" in2="BackgroundImageFix" result="shape"/>
<feGaussianBlur stdDeviation="26.5" result="effect1_foregroundBlur_454_3842"/>
</filter>
<filter id="filter4_f_454_3842" x="0" y="794.996" width="1757.97" height="372.068" filterUnits="userSpaceOnUse" color-interpolation-filters="sRGB">
<feFlood flood-opacity="0" result="BackgroundImageFix"/>
<feBlend mode="normal" in="SourceGraphic" in2="BackgroundImageFix" result="shape"/>
<feGaussianBlur stdDeviation="26.5" result="effect1_foregroundBlur_454_3842"/>
</filter>
</defs>
</svg>
