<svg width="1761" height="1205" viewBox="0 0 1761 1205" fill="none" xmlns="http://www.w3.org/2000/svg">
<path d="M1094.37 441.82L1128.22 428.527C1212.97 395.24 1274.52 320.549 1291 231L1101.5 341L1018 405L925.309 654.05C921.152 665.219 914.638 675.362 906.211 683.789L881.536 708.464C868.658 721.342 847.82 721.696 834.404 709.379C831.121 706.365 825.87 707.122 823.61 710.962L798 754.5H850.602C855.824 754.5 861.002 753.549 865.882 751.693L919 731.5L945.5 697.5L1059.61 473.378C1066.95 458.961 1079.32 447.734 1094.37 441.82Z" fill="black"/>
<path d="M835.025 482.708L780 439.5L758 452.25L780 503L832.217 612.502C836.888 622.297 840.343 632.627 842.504 643.262L861.207 735.298C863.257 745.384 870.334 753.716 879.956 757.369L1062 826.5L1116 801L891.5 724.5L891.187 653.539C891.063 625.513 886.625 597.674 878.027 570.999L862.096 521.567C857.145 506.207 847.719 492.675 835.025 482.708Z" fill="black"/>
<path d="M450.132 234.38C474.172 206.363 503.161 183.008 535.652 165.48L557.8 153.531C586.111 138.259 616.526 127.26 648.057 120.893L756.5 98.9961L1136.03 24.9996C1147.81 22.7026 1159.99 23.4737 1171.38 27.239L1210 39.9961L1406.5 56.4961L1472.75 50.4961L1523.99 55.1369C1533.82 56.0272 1543.24 59.4999 1551.3 65.2033L1584.92 89.0091C1591.69 93.7996 1596.26 101.101 1597.6 109.282L1597.76 110.252C1600.18 124.942 1607.7 138.308 1619 147.996V147.996L1709.9 204.292C1714.11 206.896 1715.42 212.403 1712.85 216.626L1701.62 235.066C1694.74 246.358 1684.27 255.012 1671.88 259.639L1645.5 269.496V269.496C1645.5 278.221 1640.1 286.035 1631.93 289.115L1625.92 291.385C1621.45 293.07 1616.53 293.103 1612.05 291.478L1572.75 277.246L1526.5 252.496L1449 240.496L1387.89 232.858C1385.97 232.618 1384.03 232.632 1382.11 232.901L1306.5 243.496L1289.36 250.684C1260.12 262.946 1235.2 283.65 1217.79 310.149V310.149C1212.71 317.88 1210 326.929 1210 336.18V382.996L1286.5 408.996L1374.25 457.246L1422.81 472.879C1446.9 480.635 1464.69 501.129 1468.98 526.072L1472.5 546.496L1469.55 597.972C1469.19 604.201 1467.12 610.212 1463.58 615.346L1412.88 688.752C1410.42 692.315 1404.91 691.279 1403.91 687.066L1396.82 657.204C1392.81 640.312 1400.75 622.851 1416.12 614.781L1430 607.496V528.996L1184.08 458.8C1174.15 455.966 1164.97 450.97 1157.2 444.169L1129 419.496L1116 382.996L947.356 388.828C944.149 388.939 940.95 388.431 937.934 387.333L878 365.496L732 355.996L753.599 355.325C770.775 354.791 785.486 367.528 787.415 384.603L816.5 641.996L934.75 689.746L1024 712.496L1043.08 728.94C1047.61 732.848 1046.4 740.168 1040.85 742.415L992.5 761.996L746.326 671.748C737.958 668.68 732.847 660.208 734.036 651.374L739 614.496L708.5 491.996L649.754 496.371C596.546 500.333 543.596 485.854 499.808 455.367V455.367C474.185 437.528 454.457 412.459 443.141 383.36L429 346.996L331.5 466.996L259.26 522.51C239.991 537.318 217.69 547.686 193.949 552.875L154.5 561.496L116.75 557.246L79 536.996L72.6346 529.153C58.7682 512.068 52.1596 490.224 54.2295 468.317L57 438.996L69 443.996V492.996L87.3524 513.837C94.6049 522.073 104.235 527.854 114.914 530.384L136.5 535.496L174.5 526.496L211.586 517.86C223.237 515.146 234.203 510.06 243.799 502.918L284 472.996L345.904 405.542C352.936 397.88 358.895 389.3 363.62 380.036L415.229 278.85C418.399 272.636 422.295 266.821 426.837 261.528L450.132 234.38Z" fill="black"/>
<g filter="url(#filter0_f_454_3817)">
<path d="M872.217 110.548L1045.87 78.9436L1155.58 57.9425L1155.58 204.334L1223.13 190.414L1171.42 100.59L1222.66 78.324L1270.31 160.691L1262.7 70.0717L1321.56 57.9419L1362.06 254.458L1318.45 201.498L1262.7 204.334L1091.12 321.026L1228.61 450.497L1362.06 483.201L1432.5 506.202L1362.06 464.497L1183.71 400.332L1217.53 291.541L1217.53 214.493L1181.24 253.188L1063.04 277.547L1045.87 245.479L1000.52 298.725L1025.69 354.995L1091.12 321.026L881.535 321.026L809.684 321.026L686.473 226.899L599.037 243.566L564.655 224.284L599.037 160.692L644.583 224.285L690.238 159.758L747.264 136.299L742.042 235.417L809.684 190.26L872.217 110.548Z" fill="white" fill-opacity="0.16"/>
</g>
<g filter="url(#filter1_f_454_3817)">
<path d="M1370.52 188.417L1446.44 212.213L1489.69 213.232L1595.22 221.383L1654.63 221.898C1665.03 221.989 1673.5 213.587 1673.5 203.192C1673.5 195.861 1669.22 189.206 1662.55 186.167L1595.22 155.496L1571.59 180.794C1565.42 187.404 1556.78 191.156 1547.74 191.156C1530.73 191.156 1515.98 179.393 1512.21 162.811L1504.39 128.496L1441.4 147.028C1434.54 149.045 1427.49 150.329 1420.36 150.857L1357.77 155.496C1350.46 168.016 1356.68 184.081 1370.52 188.417Z" fill="white" fill-opacity="0.15"/>
</g>
<g filter="url(#filter2_f_454_3817)">
<path d="M1516.5 78.4961V114.996C1516.5 118.31 1519.19 120.996 1522.5 120.996H1559" stroke="white" stroke-opacity="0.29" stroke-width="18"/>
</g>
<g filter="url(#filter3_f_454_3817)">
<path d="M496 308.496L682.098 405.796C689.116 409.465 694.524 415.606 697.276 423.032L779 643.5L980 716.5" stroke="white" stroke-opacity="0.45" stroke-width="5"/>
</g>
<g filter="url(#filter4_f_454_3817)">
<path d="M1449 597.5V515.676C1449 505.729 1442.6 496.908 1433.15 493.816L1209 420.5L1177.5 353.5" stroke="white" stroke-opacity="0.41" stroke-width="11"/>
</g>
<g filter="url(#filter5_f_454_3817)">
<path d="M505 286.5L658.274 309.346C678.641 312.381 697.666 321.339 712.981 335.103L768.5 385" stroke="white" stroke-opacity="0.28" stroke-width="27"/>
</g>
<g filter="url(#filter6_f_454_3817)">
<path fill-rule="evenodd" clip-rule="evenodd" d="M519.652 887.446C497.62 892.221 476.195 899.455 455.779 909.014L429.177 921.468C423.079 924.323 417.329 927.868 412.04 932.034L368.061 966.673C360.385 972.719 351.97 977.761 343.019 981.679L284 1007.51L237.498 1021.42C232.013 1023.06 226.379 1024.15 220.679 1024.69L174.5 1029.01L136.5 1032.62L107.371 1029.85C101.498 1029.29 95.7601 1027.76 90.3932 1025.31L69.0001 1015.55V995.864L57.0001 993.856C53.4865 1008.79 60.7328 1024.18 74.4859 1030.99L79.0001 1033.22L116.75 1041.36L154.5 1043.07L212.523 1037.97C224.142 1036.95 235.619 1034.7 246.764 1031.26L331.5 1005.1L429 956.897L430.552 958.501C450.164 978.761 474.812 993.441 501.967 1001.04L532.992 1009.71C555.865 1016.11 579.576 1019 603.316 1018.29L708.5 1015.15L739 1064.36C735.352 1075.25 742.436 1086.78 753.796 1088.46L856.501 1103.58L857.527 1105.61C858.105 1106.75 858.752 1107.85 859.461 1108.9C854.989 1109.09 850.484 1108.4 846.213 1106.83L831.388 1101.36C829.262 1100.58 826.889 1100.87 825.018 1102.15L798 1120.6H855.235C857.409 1120.6 859.579 1120.43 861.727 1120.11L870.59 1118.75C873.434 1120.21 876.529 1121.23 879.772 1121.72L1062 1149.52L1116 1139.28L996.631 1122.94L1022.71 1118.7C1030.65 1117.41 1031.6 1106.36 1024 1103.73L947.759 1095.92L1057.27 1009.51C1066.27 1002.41 1076.95 997.739 1088.28 995.951L1135.88 988.441L1161.58 997.473C1166.51 999.207 1171.62 1000.38 1176.82 1000.98L1430 1030.01V1061.55L1419.01 1063.86C1404.77 1066.87 1397.68 1082.97 1405.09 1095.51C1405.87 1096.83 1407.57 1097.28 1408.9 1096.5L1454.77 1069.83C1463.76 1064.6 1469.86 1055.54 1471.33 1045.24L1472.5 1037.04C1465.99 1021.85 1451.95 1011.24 1435.56 1009.12L1374.25 1001.19L1286.5 981.804L1221.96 972.992C1249.37 963.504 1272.53 944.215 1286.77 918.643L1306.5 915.319L1348.22 912.971L1362.06 919.723L1358.3 912.403L1385 910.9L1449 914.114L1526.5 918.935L1572.75 928.877L1616.06 935.179C1618.01 935.462 1619.99 935.456 1621.94 935.161L1639.74 932.462C1643.05 931.96 1645.5 929.113 1645.5 925.764L1678.82 920.763C1686.84 919.559 1694.51 916.621 1701.28 912.154C1707.48 908.068 1705.85 898.562 1698.65 896.77L1619 876.955L1611.41 874.341C1605.11 872.172 1600.05 867.395 1597.53 861.231C1596.25 858.097 1593.6 855.725 1590.34 854.799L1545.51 842.05C1541.19 840.82 1536.73 840.115 1532.23 839.951L1472.75 837.787L1406.5 840.198L1210 833.569L1161.32 827.108C1156.45 826.463 1151.53 826.331 1146.64 826.714L756.5 857.271L600.5 869.925L519.652 887.446ZM1043.43 972.368L944.494 973.742C943.167 973.76 941.84 973.673 940.527 973.481L878 964.329L772.326 961.567L771.895 962.761C780.943 966.573 788.071 974.338 790.857 984.242L794.944 998.772L843.001 1013.93C850.498 1016.3 857.126 1020.83 862.046 1026.96L862.528 1027.57C876.483 1044.96 885.719 1065.51 889.53 1087.25L909.36 1090.47C917.691 1086.09 925.237 1080.32 931.66 1073.39L1018 980.198L1043.43 972.368ZM843.355 1079.76C836.43 1069.41 828.07 1060.06 818.505 1052L807.251 1042.52L816.5 1075.41L843.355 1079.76Z" fill="black" fill-opacity="0.34"/>
</g>
<defs>
<filter id="filter0_f_454_3817" x="507.355" y="0.641407" width="982.445" height="562.86" filterUnits="userSpaceOnUse" color-interpolation-filters="sRGB">
<feFlood flood-opacity="0" result="BackgroundImageFix"/>
<feBlend mode="normal" in="SourceGraphic" in2="BackgroundImageFix" result="shape"/>
<feGaussianBlur stdDeviation="28.65" result="effect1_foregroundBlur_454_3817"/>
</filter>
<filter id="filter1_f_454_3817" x="1301.18" y="74.9961" width="425.817" height="200.402" filterUnits="userSpaceOnUse" color-interpolation-filters="sRGB">
<feFlood flood-opacity="0" result="BackgroundImageFix"/>
<feBlend mode="normal" in="SourceGraphic" in2="BackgroundImageFix" result="shape"/>
<feGaussianBlur stdDeviation="26.75" result="effect1_foregroundBlur_454_3817"/>
</filter>
<filter id="filter2_f_454_3817" x="1474.1" y="45.0961" width="118.3" height="118.3" filterUnits="userSpaceOnUse" color-interpolation-filters="sRGB">
<feFlood flood-opacity="0" result="BackgroundImageFix"/>
<feBlend mode="normal" in="SourceGraphic" in2="BackgroundImageFix" result="shape"/>
<feGaussianBlur stdDeviation="16.7" result="effect1_foregroundBlur_454_3817"/>
</filter>
<filter id="filter3_f_454_3817" x="462.542" y="273.981" width="550.612" height="477.168" filterUnits="userSpaceOnUse" color-interpolation-filters="sRGB">
<feFlood flood-opacity="0" result="BackgroundImageFix"/>
<feBlend mode="normal" in="SourceGraphic" in2="BackgroundImageFix" result="shape"/>
<feGaussianBlur stdDeviation="16.15" result="effect1_foregroundBlur_454_3817"/>
</filter>
<filter id="filter4_f_454_3817" x="1141.62" y="320.26" width="343.778" height="308.14" filterUnits="userSpaceOnUse" color-interpolation-filters="sRGB">
<feFlood flood-opacity="0" result="BackgroundImageFix"/>
<feBlend mode="normal" in="SourceGraphic" in2="BackgroundImageFix" result="shape"/>
<feGaussianBlur stdDeviation="15.45" result="effect1_foregroundBlur_454_3817"/>
</filter>
<filter id="filter5_f_454_3817" x="447.61" y="217.748" width="385.314" height="232.693" filterUnits="userSpaceOnUse" color-interpolation-filters="sRGB">
<feFlood flood-opacity="0" result="BackgroundImageFix"/>
<feBlend mode="normal" in="SourceGraphic" in2="BackgroundImageFix" result="shape"/>
<feGaussianBlur stdDeviation="27.7" result="effect1_foregroundBlur_454_3817"/>
</filter>
<filter id="filter6_f_454_3817" x="0.720116" y="771.1" width="1759.8" height="433.823" filterUnits="userSpaceOnUse" color-interpolation-filters="sRGB">
<feFlood flood-opacity="0" result="BackgroundImageFix"/>
<feBlend mode="normal" in="SourceGraphic" in2="BackgroundImageFix" result="shape"/>
<feGaussianBlur stdDeviation="27.7" result="effect1_foregroundBlur_454_3817"/>
</filter>
</defs>
</svg>
