<svg width="1757" height="1132" viewBox="0 0 1757 1132" fill="none" xmlns="http://www.w3.org/2000/svg">
<path d="M1058.17 554.153L1057.82 532.471C1057.61 519.602 1054.99 506.886 1050.09 494.982L1042.89 477.456C1040.31 471.175 1038.55 464.589 1037.65 457.858L1024 355.496L941.5 338.996L966.5 432.496L1015 555.996L970.5 597.996L948.178 594.648C936.699 592.926 924.971 594.949 914.732 600.416L879 619.496L877 637.496L937.25 640.496L977.284 636.149C987.172 635.075 996.465 630.891 1003.83 624.2L1043.45 588.182C1053.02 579.482 1058.38 567.085 1058.17 554.153Z" fill="black"/>
<path d="M469.39 276.864L586 245.115L627.069 219L733 475.5L762.045 554L698.689 666.43L758.308 758.173C760.787 761.989 763.787 765.441 767.219 768.429L807.371 803.387L859.459 816.154V842C859.459 853.046 850.505 862 839.459 862H801.289C789.576 862 778.453 856.867 770.853 847.955L625.524 677.54C619.938 670.989 619.454 661.5 624.346 654.416L646.101 622.906L674 515L577.896 488.91C545.482 480.11 515.791 463.329 491.534 440.098L473.468 422.797C448.257 398.653 434 365.26 434 330.352V323.178C434 301.525 448.497 282.553 469.39 276.864Z" fill="black"/>
<path d="M461.369 221.285C477.981 201.924 498.013 185.785 520.466 173.673L572.339 145.688C591.01 135.616 611.069 128.362 631.864 124.163L756.5 98.9961L1136.03 24.9996C1147.81 22.7026 1159.99 23.4737 1171.38 27.239L1210 39.9961L1406.5 56.4961L1472.75 50.4961L1523.99 55.1369C1533.82 56.0272 1543.24 59.4999 1551.3 65.2033L1584.92 89.0091C1591.69 93.7996 1596.26 101.101 1597.6 109.282L1597.76 110.252C1600.18 124.942 1607.7 138.308 1619 147.996V147.996L1709.9 204.292C1714.11 206.896 1715.42 212.403 1712.85 216.626L1701.62 235.066C1694.74 246.358 1684.27 255.012 1671.88 259.639L1645.5 269.496V269.496C1645.5 278.221 1640.1 286.035 1631.93 289.115L1625.92 291.385C1621.45 293.07 1616.53 293.103 1612.05 291.478L1572.75 277.246L1526.5 252.496L1449 240.496L1387.89 232.858C1385.97 232.618 1384.03 232.632 1382.11 232.901L1306.5 243.496L1266.58 260.238C1253.2 265.846 1244.5 278.933 1244.5 293.437V299.194C1244.5 318.655 1238.93 337.71 1228.46 354.11L1210 382.996L1286.5 408.996L1374.25 457.246L1422.81 472.879C1446.9 480.635 1464.69 501.129 1468.98 526.072L1472.5 546.496L1469.55 597.972C1469.19 604.201 1467.12 610.212 1463.58 615.346L1412.88 688.752C1410.42 692.315 1404.91 691.279 1403.91 687.066L1396.82 657.204C1392.81 640.312 1400.75 622.851 1416.12 614.781L1430 607.496V528.996L1184.08 458.8C1174.15 455.966 1164.97 450.97 1157.2 444.169L1129 419.496L1116 382.996L947.356 388.828C944.149 388.939 940.95 388.431 937.934 387.333L878 365.496L732 355.996L753.599 355.325C770.775 354.791 785.486 367.528 787.415 384.603L816.5 641.996L934.75 689.746L1024 712.496L1043.08 728.94C1047.61 732.848 1046.4 740.168 1040.85 742.415L992.5 761.996L746.326 671.748C737.958 668.68 732.847 660.208 734.036 651.374L739 614.496L706.5 544.996L625.5 457.496L429 346.996L331.5 466.996L259.26 522.51C239.991 537.318 217.69 547.686 193.949 552.875L154.5 561.496L116.75 557.246L79 536.996L72.6346 529.153C58.7682 512.068 52.1596 490.224 54.2295 468.317L57 438.996L69 443.996V492.996L87.3524 513.837C94.6049 522.073 104.235 527.854 114.914 530.384L136.5 535.496L174.5 526.496L211.586 517.86C223.237 515.146 234.203 510.06 243.799 502.918L284 472.996L345.904 405.542C352.936 397.88 358.895 389.3 363.62 380.036L415.229 278.85C418.399 272.636 422.295 266.821 426.837 261.528L461.369 221.285Z" fill="black"/>
<g filter="url(#filter0_f_454_3831)">
<path d="M872.217 110.548L1045.87 78.9436L1155.58 57.9425L1155.58 204.334L1223.13 190.414L1171.42 100.59L1222.66 78.324L1270.31 160.691L1262.7 70.0717L1321.56 57.9419L1362.06 254.458L1318.45 201.498L1262.7 204.334L1091.12 321.026L1228.61 450.497L1362.06 483.201L1432.5 506.202L1362.06 464.497L1183.71 400.332L1217.53 291.541L1217.53 214.493L1181.24 253.188L1063.04 277.547L1045.87 245.479L1000.52 298.725L1025.69 354.995L1091.12 321.026L881.535 321.026L809.684 321.026L686.473 226.899L599.037 243.566L564.655 224.284L599.037 160.692L644.583 224.285L690.238 159.758L747.264 136.299L742.042 235.417L809.684 190.26L872.217 110.548Z" fill="white" fill-opacity="0.16"/>
</g>
<g filter="url(#filter1_f_454_3831)">
<path d="M1370.52 188.417L1446.44 212.213L1489.69 213.232L1595.22 221.383L1654.63 221.898C1665.03 221.989 1673.5 213.587 1673.5 203.192C1673.5 195.861 1669.22 189.206 1662.55 186.167L1595.22 155.496L1571.59 180.794C1565.42 187.404 1556.78 191.156 1547.74 191.156C1530.73 191.156 1515.98 179.393 1512.21 162.811L1504.39 128.496L1441.4 147.028C1434.54 149.045 1427.49 150.329 1420.36 150.857L1357.77 155.496C1350.46 168.016 1356.68 184.081 1370.52 188.417Z" fill="white" fill-opacity="0.15"/>
</g>
<g filter="url(#filter2_f_454_3831)">
<path d="M1516.5 78.4961V114.996C1516.5 118.31 1519.19 120.996 1522.5 120.996H1559" stroke="white" stroke-opacity="0.29" stroke-width="18"/>
</g>
<g filter="url(#filter3_f_454_3831)">
<path d="M496 308.496L682.605 406.061C689.317 409.57 694.566 415.346 697.42 422.362L777 617.996" stroke="white" stroke-opacity="0.65" stroke-width="11"/>
</g>
<g filter="url(#filter4_f_454_3831)">
<path d="M709.5 546.5L658 664.5L788 821.5" stroke="white" stroke-opacity="0.41" stroke-width="11"/>
</g>
<g filter="url(#filter5_f_454_3831)">
<path d="M1449 597.5V515.676C1449 505.729 1442.6 496.908 1433.15 493.816L1209 420.5L1177.5 353.5" stroke="white" stroke-opacity="0.41" stroke-width="11"/>
</g>
<g filter="url(#filter6_f_454_3831)">
<path d="M505 286.5L658.274 309.346C678.641 312.381 697.666 321.339 712.981 335.103L768.5 385" stroke="white" stroke-opacity="0.28" stroke-width="27"/>
</g>
<g filter="url(#filter7_f_454_3831)">
<path fill-rule="evenodd" clip-rule="evenodd" d="M471.307 909.972C481.421 906.967 491.749 904.736 502.202 903.299L600.5 889.782L756.5 881.753L1154 861.998L1210 866.714L1406.5 870.919L1472.75 869.39L1534.64 870.819C1537.54 870.886 1540.44 871.178 1543.29 871.694L1591.86 880.458C1594.18 880.878 1596.23 882.241 1597.51 884.224C1600.06 888.192 1604.09 890.985 1608.7 891.993L1619 894.243L1695.37 906.299C1701.7 907.297 1702.74 915.966 1696.83 918.438C1692.97 920.057 1688.88 921.082 1684.7 921.479L1645.5 925.213C1645.5 927.309 1643.91 929.062 1641.82 929.263L1620.88 931.277C1619.63 931.397 1618.37 931.4 1617.12 931.285L1572.75 927.188L1526.5 920.88L1449 917.821L1385 915.782L1358.3 916.735L1362.06 921.381L1348.21 917.096L1306.5 918.586L1249.31 924.699C1246.57 924.991 1244.5 927.299 1244.5 930.049C1244.5 936.287 1240.7 941.896 1234.9 944.208L1210 954.144L1286.5 960.771L1354.73 970.335L1428.37 976.474C1430.98 976.692 1433.49 977.258 1435.85 978.125L1443.3 978.736C1455.12 979.706 1465.86 985.991 1472.5 995.82C1470.32 1005.52 1463.37 1013.45 1454.05 1016.89L1407.48 1034.07C1406.89 1034.29 1406.22 1034.13 1405.79 1033.67C1399.16 1026.56 1403.33 1014.94 1412.96 1013.65L1430 1011.37V991.359L1174.13 972.743C1170.72 972.494 1167.32 971.995 1163.98 971.248L1129 963.448L1116 954.144L1028.07 954.919L1036.08 970.233C1037.99 973.885 1040.85 976.956 1044.35 979.127L1049.73 982.465C1054.61 985.487 1057.72 990.68 1058.08 996.402C1058.32 1000.18 1055.79 1003.58 1052.1 1004.44L997.095 1017.19C994.039 1017.89 990.921 1018.3 987.785 1018.38L937.25 1019.78L877 1019.02L879 1014.43L925.847 1008.05C928.943 1007.63 932.07 1007.48 935.193 1007.6L970.5 1008.95L1015 998.242L966.5 966.762L954.755 955.565L942.5 955.673L878 949.683L770.16 947.894C780.074 950.225 788.53 957.067 792.776 966.646L816.5 1020.16L934.75 1032.33L1024 1038.13C1029.3 1039.3 1028.86 1047 1023.47 1047.55L992.5 1050.75L746.925 1027.8C739.818 1027.14 735.667 1019.46 739 1013.15L733.991 1010.42L698.689 1026.39L758.494 1049.85C760.858 1050.78 763.291 1051.52 765.77 1052.07L807.372 1061.3L859.459 1064.56C859.459 1071.01 854.227 1076.24 847.773 1076.24H788.681C784.801 1076.24 780.942 1075.68 777.225 1074.57L646.742 1035.56C636.903 1032.62 636.468 1018.85 646.101 1015.3L674 987.792L542.652 978.702C533.235 978.051 523.89 976.598 514.719 974.359L450.873 958.774C443.929 957.079 438.428 952.209 435.76 945.936L429 944.967L331.5 975.555L230 995.437L154.5 999.643L116.75 998.56L79.0002 993.398L67.4693 989.777C58.5118 986.963 53.7368 977.222 57.0002 968.418L69.0002 969.693V982.183L92.8397 989.083C96.6018 990.172 100.473 990.841 104.382 991.077L136.5 993.016L174.5 990.722L229.25 987.472L284 977.085L345.8 959.92C352.917 957.943 359.827 955.285 366.434 951.983L413.107 928.658C417.694 926.366 422.472 924.479 427.387 923.018L471.307 909.972Z" fill="black" fill-opacity="0.34"/>
</g>
<defs>
<filter id="filter0_f_454_3831" x="507.355" y="0.641407" width="982.445" height="562.86" filterUnits="userSpaceOnUse" color-interpolation-filters="sRGB">
<feFlood flood-opacity="0" result="BackgroundImageFix"/>
<feBlend mode="normal" in="SourceGraphic" in2="BackgroundImageFix" result="shape"/>
<feGaussianBlur stdDeviation="28.65" result="effect1_foregroundBlur_454_3831"/>
</filter>
<filter id="filter1_f_454_3831" x="1301.18" y="74.9961" width="425.817" height="200.402" filterUnits="userSpaceOnUse" color-interpolation-filters="sRGB">
<feFlood flood-opacity="0" result="BackgroundImageFix"/>
<feBlend mode="normal" in="SourceGraphic" in2="BackgroundImageFix" result="shape"/>
<feGaussianBlur stdDeviation="26.75" result="effect1_foregroundBlur_454_3831"/>
</filter>
<filter id="filter2_f_454_3831" x="1474.1" y="45.0961" width="118.3" height="118.3" filterUnits="userSpaceOnUse" color-interpolation-filters="sRGB">
<feFlood flood-opacity="0" result="BackgroundImageFix"/>
<feBlend mode="normal" in="SourceGraphic" in2="BackgroundImageFix" result="shape"/>
<feGaussianBlur stdDeviation="16.7" result="effect1_foregroundBlur_454_3831"/>
</filter>
<filter id="filter3_f_454_3831" x="440.452" y="250.623" width="394.643" height="422.445" filterUnits="userSpaceOnUse" color-interpolation-filters="sRGB">
<feFlood flood-opacity="0" result="BackgroundImageFix"/>
<feBlend mode="normal" in="SourceGraphic" in2="BackgroundImageFix" result="shape"/>
<feGaussianBlur stdDeviation="26.5" result="effect1_foregroundBlur_454_3831"/>
</filter>
<filter id="filter4_f_454_3831" x="620.306" y="513.001" width="203.231" height="343.307" filterUnits="userSpaceOnUse" color-interpolation-filters="sRGB">
<feFlood flood-opacity="0" result="BackgroundImageFix"/>
<feBlend mode="normal" in="SourceGraphic" in2="BackgroundImageFix" result="shape"/>
<feGaussianBlur stdDeviation="15.65" result="effect1_foregroundBlur_454_3831"/>
</filter>
<filter id="filter5_f_454_3831" x="1141.62" y="320.26" width="343.778" height="308.14" filterUnits="userSpaceOnUse" color-interpolation-filters="sRGB">
<feFlood flood-opacity="0" result="BackgroundImageFix"/>
<feBlend mode="normal" in="SourceGraphic" in2="BackgroundImageFix" result="shape"/>
<feGaussianBlur stdDeviation="15.45" result="effect1_foregroundBlur_454_3831"/>
</filter>
<filter id="filter6_f_454_3831" x="447.61" y="217.748" width="385.314" height="232.693" filterUnits="userSpaceOnUse" color-interpolation-filters="sRGB">
<feFlood flood-opacity="0" result="BackgroundImageFix"/>
<feBlend mode="normal" in="SourceGraphic" in2="BackgroundImageFix" result="shape"/>
<feGaussianBlur stdDeviation="27.7" result="effect1_foregroundBlur_454_3831"/>
</filter>
<filter id="filter7_f_454_3831" x="0.571678" y="806.598" width="1755.57" height="325.044" filterUnits="userSpaceOnUse" color-interpolation-filters="sRGB">
<feFlood flood-opacity="0" result="BackgroundImageFix"/>
<feBlend mode="normal" in="SourceGraphic" in2="BackgroundImageFix" result="shape"/>
<feGaussianBlur stdDeviation="27.7" result="effect1_foregroundBlur_454_3831"/>
</filter>
</defs>
</svg>
