<svg width="1726" height="1146" viewBox="0 0 1726 1146" fill="none" xmlns="http://www.w3.org/2000/svg">
<path d="M669.48 240.703V187L603.602 107.5L456.643 196.5L434.299 380.033C432.846 391.964 439.171 403.492 450.015 408.677L585.584 473.5L603.602 499L647.469 509.251C652.387 510.4 657.093 506.667 657.093 501.617C657.093 483.963 648.6 467.388 634.272 457.075L603.602 435L488.737 382.5L618.114 317.047C626.037 313.038 633.316 307.866 639.709 301.703L646.23 295.416C661.087 281.092 669.48 261.341 669.48 240.703Z" fill="black"/>
<path d="M1091.78 383L1203.26 335L921.169 383L826.574 426.5L759.57 610.5L748.707 635.79C742.823 649.487 746.853 665.428 758.539 674.684L759.57 675.5L770.07 739.043C772.783 755.459 786.977 767.5 803.615 767.5H857.543L866.552 746.5L809.683 721.5L798.984 675.5L819.764 626.444C821.299 622.82 823.113 619.321 825.19 615.978L903.18 490.452C914.637 472.014 933.343 459.267 954.695 455.352L966.526 453.182C1004.63 446.194 1040.09 428.901 1069.05 403.18L1091.78 383Z" fill="black"/>
<path d="M14.0765 25L23.6486 107.5L52.3647 160.5L101.633 184L186.796 190.25L271.959 174.5L330.799 140L369.992 102.75C378.497 94.667 388.55 88.3877 399.545 84.29L477.506 55.2351C486.827 51.7611 496.577 49.5676 506.488 48.7146L619.368 39L734.352 45.2973C742.868 45.7637 751.287 47.3515 759.388 50.0195L1137.38 174.5L1259.57 160.5L1338.96 149.5L1408.21 139.905C1414.89 138.98 1421.68 139.566 1428.1 141.62L1459.29 151.599C1473.29 156.079 1485.46 164.974 1493.98 176.952L1494.37 177.5L1614.3 210.5L1611.59 223.328C1607.96 240.537 1596.83 255.228 1581.26 263.394L1559.12 275L1566.27 276.36C1573.76 277.786 1577.05 286.668 1572.29 292.631V292.631C1566.81 299.5 1558.5 303.5 1549.72 303.5H1494.37L1456.36 295.5L1328.83 303.5L969.535 394.657C964.712 395.881 959.755 396.5 954.779 396.5H862.61L821.968 590.2C819.586 601.552 811.419 610.82 800.457 614.611L660.789 662.912C654.294 665.158 647.521 660.333 647.521 653.461V629.5L749.854 590.995C768.356 584.033 780.862 566.636 781.567 546.881L788.076 364.457C788.933 340.444 780.361 317.048 764.193 299.273L753.939 288L666.102 231.5L588.962 184L544.481 199L528.715 300V300C525.036 342.742 486.385 373.738 443.864 368.046L297.86 348.5L370.054 451.668C378.403 463.6 382.882 477.811 382.882 492.375V537.5L326.013 503.5V458L256.394 376.588C249.595 368.636 244.722 359.224 242.155 349.082L240.632 343.066C234.959 320.658 250.992 298.593 274.057 297.066L411.035 288L382.882 252L364.625 224.315C352.909 206.548 348.961 184.765 353.698 164.017L354.729 159.5L271.959 199L198.863 213.288C187.979 215.416 176.825 215.789 165.823 214.393L101.633 206.25L97.6129 205.374C71.1057 199.601 47.0448 185.74 28.7524 165.706L23.0855 159.5L4.78602 123.5L0 87.5L14.0765 25Z" fill="black"/>
<path d="M1324.88 158L1270.83 148" stroke="black" stroke-width="3"/>
<g filter="url(#filter0_f_454_3790)">
<path d="M709.653 125H860.709L943.958 201.515L926.413 257.538H978.677L954.038 212.806L995.476 207.595L1018.25 248.635L1026.46 207.595H1072L1061.84 248.635L1114.3 316.602L1047.74 271.218L1026.46 347.374L860.709 303.573L872.921 347.374L838.684 486.5L828.532 347.374H917.311L962.624 316.602H995.102L997.715 300.099L962.624 298.796L970.837 267.744L937.985 281.641H846.524L838.684 265.79L796.873 285.333L806.952 312.693L860.709 303.573L879.002 329.414H846.524L796.873 285.333L709.653 224.545H574.752L525.4 212.806L392.454 316.602L514.456 189.789L494.122 230.919L392.454 248.635L438.815 201.515L494.122 175.966L514.456 189.789H633.735L614.696 233.435V57.5L709.653 125Z" fill="white" fill-opacity="0.18"/>
</g>
<g filter="url(#filter1_f_454_3790)">
<path d="M1226.92 242.314L1314.33 266.717L1362.88 267.736L1481.36 275.887L1544.83 276.441C1553.34 276.516 1560.92 271.077 1563.57 262.993C1566.77 253.234 1561.87 242.664 1552.35 238.802L1481.36 210L1455.08 235.07C1447.95 241.868 1438.48 245.66 1428.63 245.66C1409.09 245.66 1392.03 232.416 1387.19 213.482L1379.39 183L1306.41 202.122C1300.21 203.748 1293.87 204.779 1287.47 205.201L1214.78 210C1206.85 222.103 1212.98 238.423 1226.92 242.314Z" fill="white" fill-opacity="0.21"/>
</g>
<g filter="url(#filter2_f_454_3790)">
<path d="M409.909 170.5L502.814 321H316.441" stroke="white" stroke-width="8"/>
</g>
<g filter="url(#filter3_f_454_3790)">
<path d="M814.187 422.5V551.953C814.187 563.835 807.175 574.597 796.306 579.396L710.021 617.5" stroke="white" stroke-opacity="0.64" stroke-width="3"/>
</g>
<g filter="url(#filter4_f_454_3790)">
<path d="M1421.73 151V187.5C1421.73 190.814 1424.42 193.5 1427.73 193.5H1469.59" stroke="white" stroke-opacity="0.29" stroke-width="18"/>
</g>
<g filter="url(#filter5_f_454_3790)">
<path fill-rule="evenodd" clip-rule="evenodd" d="M101.351 847.167L91.7791 814L77.7025 839.126L82.4885 853.599L100.788 868.072L114.767 874.227C127.881 880.001 141.854 883.584 156.128 884.834L179.335 886.866L260.134 890.987L349.661 883.952L432.431 868.072C427.725 876.361 430.452 886.889 438.591 891.85L460.584 905.259L488.737 919.731L330.882 923.932C320.531 924.207 314.414 935.644 319.932 944.406C322.432 948.376 326.017 951.547 330.263 953.543L403.715 988.075V1006.37L460.584 1020.04C460.584 1003.25 451.61 987.743 437.055 979.381L375.562 944.054L518.735 951.759C521.771 961.089 529.637 968.614 540.091 970.624L663.286 994.305L681.305 1004.56L732.169 1009.34C733.578 1009.47 734.795 1008.36 734.795 1006.94C734.795 999.458 729.846 992.873 722.655 990.793L681.305 978.828L566.44 957.722L702.525 930.044C706.014 929.334 709.437 928.33 712.757 927.043L714.946 926.195C728.554 920.921 738.913 910.17 743.899 897.042L831.642 919.731C852.851 929.105 865.736 950.944 863.686 974.042L861.429 999.48C859.478 1021.45 842.753 1039.24 820.941 1042.54L725.223 1057.02V1060.81C725.223 1066.88 730.588 1071.55 736.6 1070.72L829.568 1057.79C826.377 1064.47 829.549 1073.06 837.273 1075.51L843.813 1091.43C849.054 1104.18 861.475 1112.5 875.26 1112.5H935.245L944.254 1104.06L887.385 1094.01L876.687 1075.51L894.659 1058.46C898.061 1055.23 901.754 1052.32 905.691 1049.78L982.34 1000.18C993.186 993.161 1005.62 988.985 1018.51 988.035L1073.83 983.956C1092.84 982.554 1111.57 978.596 1129.52 972.188L1169.48 957.924L1278.96 938.975L1406.53 925.963L1534.06 922.746L1572.07 925.963H1637.92C1640.16 925.963 1642.37 925.438 1644.36 924.431C1648.91 922.142 1647.56 915.326 1642.49 914.938L1636.82 914.505L1665.78 908.401C1677.04 906.029 1686.65 898.76 1692 888.575L1572.07 875.308L1570.14 874.218C1562.49 869.894 1554.07 867.093 1545.36 865.972L1500.16 860.158C1497.43 859.806 1494.67 859.706 1491.92 859.86L1416.66 864.052L1393.9 865.319L1348.64 861.953L1348.42 864.945L1370.77 866.608L1337.27 868.474L1215.09 874.102L824.885 822.442L697.07 819.628L569.255 824.051L469.924 838.933C463.716 839.863 457.627 841.462 451.763 843.703L408.501 860.232L349.661 874.102L264.498 880.434L179.335 877.921L130.067 868.474L101.351 847.167ZM969.518 963.35H940.313L937.194 969.326L969.518 963.35Z" fill="black" fill-opacity="0.34"/>
</g>
<defs>
<filter id="filter0_f_454_3790" x="335.154" y="0.200001" width="836.445" height="543.6" filterUnits="userSpaceOnUse" color-interpolation-filters="sRGB">
<feFlood flood-opacity="0" result="BackgroundImageFix"/>
<feBlend mode="normal" in="SourceGraphic" in2="BackgroundImageFix" result="shape"/>
<feGaussianBlur stdDeviation="28.65" result="effect1_foregroundBlur_454_3790"/>
</filter>
<filter id="filter1_f_454_3790" x="1157.77" y="129.5" width="460.274" height="200.441" filterUnits="userSpaceOnUse" color-interpolation-filters="sRGB">
<feFlood flood-opacity="0" result="BackgroundImageFix"/>
<feBlend mode="normal" in="SourceGraphic" in2="BackgroundImageFix" result="shape"/>
<feGaussianBlur stdDeviation="26.75" result="effect1_foregroundBlur_454_3790"/>
</filter>
<filter id="filter2_f_454_3790" x="271.541" y="123.498" width="283.343" height="246.402" filterUnits="userSpaceOnUse" color-interpolation-filters="sRGB">
<feFlood flood-opacity="0" result="BackgroundImageFix"/>
<feBlend mode="normal" in="SourceGraphic" in2="BackgroundImageFix" result="shape"/>
<feGaussianBlur stdDeviation="22.45" result="effect1_foregroundBlur_454_3790"/>
</filter>
<filter id="filter3_f_454_3790" x="682.215" y="395.3" width="160.672" height="250.773" filterUnits="userSpaceOnUse" color-interpolation-filters="sRGB">
<feFlood flood-opacity="0" result="BackgroundImageFix"/>
<feBlend mode="normal" in="SourceGraphic" in2="BackgroundImageFix" result="shape"/>
<feGaussianBlur stdDeviation="13.6" result="effect1_foregroundBlur_454_3790"/>
</filter>
<filter id="filter4_f_454_3790" x="1379.33" y="117.6" width="123.66" height="118.3" filterUnits="userSpaceOnUse" color-interpolation-filters="sRGB">
<feFlood flood-opacity="0" result="BackgroundImageFix"/>
<feBlend mode="normal" in="SourceGraphic" in2="BackgroundImageFix" result="shape"/>
<feGaussianBlur stdDeviation="16.7" result="effect1_foregroundBlur_454_3790"/>
</filter>
<filter id="filter5_f_454_3790" x="44.3025" y="780.6" width="1681.1" height="365.3" filterUnits="userSpaceOnUse" color-interpolation-filters="sRGB">
<feFlood flood-opacity="0" result="BackgroundImageFix"/>
<feBlend mode="normal" in="SourceGraphic" in2="BackgroundImageFix" result="shape"/>
<feGaussianBlur stdDeviation="16.7" result="effect1_foregroundBlur_454_3790"/>
</filter>
</defs>
</svg>
