<svg width="1908" height="1165" viewBox="0 0 1908 1165" fill="none" xmlns="http://www.w3.org/2000/svg">
<path d="M698.321 1.75617C741.215 2.58105 783.764 9.60452 824.648 22.6085L970.5 69L1074.25 100L1164.65 122.65C1178.82 126.202 1193.4 127.9 1208.01 127.702L1265.63 126.92C1310.43 126.313 1354.9 134.619 1396.47 151.355L1408 156L1452.5 160.5L1560.95 173.714C1564.61 174.161 1566.88 169.829 1564.42 167.078L1548.25 149L1553.39 131.378C1555.46 124.28 1564.25 121.806 1569.72 126.783L1609.6 163.081C1613.06 166.235 1617.62 167.914 1622.3 167.761L1645.5 167L1692.31 175.686C1693.43 175.895 1694.54 176.193 1695.62 176.576L1701.17 178.542C1731.41 189.273 1756.4 211.159 1771.03 239.718V239.718C1773.29 244.136 1776.83 247.768 1781.2 250.137L1859.35 292.579C1881.63 304.681 1883.3 336.04 1862.43 350.442L1858 353.5L1823.25 366.5L1776.5 367.5L1807.75 386.536C1813.42 389.989 1813.52 398.182 1807.95 401.783L1795.34 409.92C1790.82 412.843 1785.28 413.772 1780.05 412.486V412.486C1757.12 406.853 1735.01 398.249 1714.3 386.893L1670.13 362.67C1668.73 361.901 1667.17 361.48 1665.57 361.441L1616.25 360.25L1566.88 351.875L1517.5 357.5L1464.82 369.977C1461.95 370.657 1459.01 371 1456.06 371H1428.78C1425.06 371 1421.47 372.382 1418.71 374.878L1333.5 452L1303.5 477.375L1223 492.5L1236 559.75L1239 627L1264.5 750.5L1280.22 786.27C1282.94 792.443 1288.22 797.114 1294.68 799.048L1360.86 818.859C1362.13 819.24 1363 820.408 1363 821.733V828.5C1363 843.412 1350.91 855.5 1336 855.5H1271V855.5C1265.2 842.923 1255.05 832.857 1242.43 827.148L1241 826.5L1232.56 781.643C1232.35 780.555 1231.97 779.509 1231.42 778.547L1227.65 771.917C1222.68 763.184 1214.38 756.847 1204.64 754.363L1189.5 750.5L1201.75 742.25L1178.33 613.811C1178.11 612.605 1177.8 611.417 1177.41 610.256L1133 479.5L1064.06 444.218C1053.38 438.755 1043.34 432.146 1034.1 424.507L906.379 318.927C900.819 314.33 894.662 310.507 888.076 307.561L857.967 294.09C846.812 289.1 834.64 286.8 822.433 287.377L789.6 288.928C783.114 289.235 778.303 295.063 779.232 301.489L781.364 316.251C782.436 323.67 774.499 329.071 767.991 325.352L714 294.5L678.25 281.987C675.51 281.028 672.515 281.095 669.821 282.175L645.625 291.875L615.25 313.25L589.849 336.869C578.596 347.331 564.214 353.801 548.92 355.28L515.625 358.5L458.75 352L419.5 367L281.875 390L250.058 404.014C234.391 410.914 220.497 421.284 209.424 434.341L155.438 498L133.531 557L108.625 600L77.125 572.25L77.625 520.5L146 462.5V441L186.25 400.5L206.922 357.851C208.908 353.754 212.299 350.506 216.478 348.699L321 303.5L335.242 296.56C389.747 269.999 433.448 225.485 459 170.5V170.5L484.75 126.75L526.5 83L467.966 101.077C461.666 103.022 455.217 104.45 448.684 105.345L385.5 114L327.416 108.368C311.249 106.8 295.45 102.582 280.653 95.8816L238.125 76.625L194.26 54.0586C180.365 46.9105 165.304 42.3059 149.788 40.4624L97.5 34.25L30.5 51.5V51.5C26.2379 45.3575 29.0334 36.8433 36.1071 34.4229L45.5625 31.1875L45.9629 30.9947C71.3351 18.7754 99.3585 13.0902 127.487 14.4557L155.438 15.8125L198.144 29.9473C216.834 36.1335 234.856 44.1813 251.937 53.9698L281.875 71.125L350.5 87L417.188 80.4178C436.743 78.4878 455.803 73.1218 473.493 64.5668L578.568 13.7501C597.259 4.71093 617.818 0.208045 638.576 0.607234L698.321 1.75617Z" fill="black"/>
<path d="M1418.5 462.487V337L1284 412.5L1297.5 485.5L1355.5 554L1418.5 581.5L1505 621.5L1581.66 672.007C1587.19 675.65 1592.17 680.07 1596.44 685.13L1603.5 693.5H1649L1671.5 696.612C1687.32 698.8 1701.86 706.511 1712.54 718.383C1713.47 719.412 1714.79 720 1716.18 720H1749.04C1756.47 720 1763.71 717.57 1769.64 713.08L1777.72 706.965C1789.29 698.203 1797.87 686.079 1802.29 672.252C1804.36 665.779 1798.55 659.533 1791.94 661.123L1774.82 665.243C1752.24 670.674 1728.72 670.827 1706.08 665.688L1670 657.5L1603.5 622.5L1480 526.5L1437.65 498.265C1425.69 490.29 1418.5 476.864 1418.5 462.487Z" fill="black"/>
<path d="M310.272 282H385.5L285.5 391.5L279.963 396.404C272.064 403.401 265.608 411.873 260.958 421.345L254.5 434.5L233.864 466.421C226.352 478.041 216.769 488.183 205.593 496.342L193.575 505.115C179.88 515.112 163.363 520.5 146.406 520.5H129.5L172.5 460L181.049 467.446C184.861 470.766 190.658 470.296 193.886 466.406L199.7 459.4C204.869 453.171 209.036 446.176 212.053 438.666L231 391.5L274.462 304.177C281.225 290.59 295.095 282 310.272 282Z" fill="black"/>
<g filter="url(#filter0_f_454_3764)">
<path d="M961.406 126.807L1133.32 165.981L1243.16 152.604L1220.01 275.858H1288.97L1256.46 177.446L1311.14 165.981L1341.18 256.271L1352.02 165.981H1412.12V366.627L1380.1 305.955L1341.18 377.137H1133.32L1176 575L1243 779.5H1267.79L1220 615L1208 473.5L1267.79 405.8H1310.64L1314.09 369.493L1267.79 366.627L1278.63 298.311L1235.28 328.886H1114.6L1104.25 294.012L1049.08 337.007L1062.38 397.201L1133.32 377.137L1157.45 433.986H1114.6L1009.5 337.007L934 305.955L756 203.271L667 201.946L604 68H659.5L715.5 192.256L773.24 138.272L833.828 126.807L808.706 222.83L884.071 192.256L961.406 126.807Z" fill="white" fill-opacity="0.18"/>
</g>
<g filter="url(#filter1_f_454_3764)">
<path d="M1544.06 602.492L1341.44 456.508" stroke="white" stroke-opacity="0.37" stroke-width="8"/>
</g>
<g filter="url(#filter2_f_454_3764)">
<path d="M558.125 82.5523L596.28 74.1299L590.053 159.649L546.073 242.686C534.246 265.016 515.928 283.238 493.536 294.948L404.878 341.311L268.29 366.582L289.47 331.147L370.678 295.148L456.763 235.649L558.125 82.5523Z" fill="white" fill-opacity="0.3"/>
</g>
<g filter="url(#filter3_f_454_3764)">
<path d="M766.009 251.009L804 289L713.043 276.06C694.489 273.421 675.575 276.706 658.998 285.447L657 286.5L617 317L547 359.5L638.271 269.719C658.284 250.033 685.233 239 713.306 239H737.017C747.891 239 758.32 243.32 766.009 251.009Z" fill="white" fill-opacity="0.45"/>
</g>
<g filter="url(#filter4_f_454_3764)">
<path d="M1521.02 294.921L1596.94 318.717L1640.19 319.736L1745.72 327.887L1805.13 328.402C1815.53 328.493 1824 320.091 1824 309.696C1824 302.365 1819.72 295.71 1813.05 292.671L1745.72 262L1722.09 287.298C1715.92 293.908 1707.28 297.66 1698.24 297.66C1681.23 297.66 1666.48 285.897 1662.71 269.315L1654.89 235L1591.9 253.532C1585.04 255.549 1577.99 256.832 1570.86 257.361L1508.27 262C1500.96 274.52 1507.18 290.585 1521.02 294.921Z" fill="white" fill-opacity="0.15"/>
</g>
<g filter="url(#filter5_f_454_3764)">
<path d="M1696 206V242.5C1696 245.814 1698.69 248.5 1702 248.5H1738.5" stroke="white" stroke-opacity="0.29" stroke-width="18"/>
</g>
<g filter="url(#filter6_f_454_3764)">
<path fill-rule="evenodd" clip-rule="evenodd" d="M768.21 776.144L975.71 803.62L1079.46 816.526L1191.21 828.183L1309.61 827.515C1328.98 827.405 1348.31 828.96 1367.41 832.161L1413.21 839.84L1457.71 841.713L1556.22 846.71C1560.6 846.933 1562.09 840.944 1558.11 839.089L1553.46 836.926L1558.62 829.556C1561.25 825.81 1566.08 824.322 1570.36 825.943L1617.01 843.623C1619.12 844.424 1621.37 844.82 1623.63 844.789L1650.71 844.42L1699.21 848.166L1724.79 851.945C1743.56 854.717 1761.23 862.495 1775.95 874.461C1778.42 876.471 1781.33 877.882 1784.44 878.585L1862.47 896.228C1875.93 899.271 1876.48 918.252 1863.21 922.063L1828.46 927.475L1781.71 927.891L1796.56 931.657C1804.27 933.612 1804.34 944.532 1796.67 946.596C1794.55 947.166 1792.34 947.343 1790.16 947.12L1750.71 943.087L1674.26 925.633C1673.56 925.473 1672.85 925.389 1672.13 925.382L1621.46 924.873L1572.09 921.386L1522.71 923.728L1465.71 929.348H1430.94C1429.14 929.348 1427.34 929.674 1425.65 930.311L1423.71 931.044V944.325C1423.71 963.645 1436.59 980.592 1455.21 985.759L1485.21 994.085L1608.71 1034.05L1675.21 1048.62L1731.08 1053.9C1740.81 1054.82 1750.61 1054.79 1760.33 1053.82L1803.27 1049.52C1806.66 1049.18 1808.81 1053.05 1806.74 1055.75C1802.81 1060.87 1797.41 1064.65 1791.27 1066.59L1770.61 1073.1C1767.36 1074.12 1763.98 1074.64 1760.58 1074.64H1720.74C1719.73 1074.64 1718.74 1074.42 1717.82 1074C1706.85 1068.92 1695.01 1065.96 1682.94 1065.26L1654.21 1063.61H1608.71L1601.13 1059.87C1597.19 1057.93 1593.08 1056.36 1588.85 1055.2L1510.21 1033.64L1423.71 1016.98L1360.71 1005.53L1302.71 977.016L1301.46 974.201L1228.21 979.931L1241.21 1007.93L1244.21 1035.93L1269.71 1087.34L1284.23 1101.09C1287.79 1104.46 1292.33 1106.61 1297.2 1107.22L1366.88 1115.9C1367.64 1116 1368.21 1116.64 1368.21 1117.41C1368.21 1124.94 1362.1 1131.05 1354.56 1131.05H1276.21C1270.32 1125.74 1263.09 1122.16 1255.3 1120.69L1246.21 1118.98L1238.54 1102.02C1237.83 1100.45 1236.73 1099.09 1235.34 1098.07L1233.12 1096.45C1227.86 1092.6 1221.67 1090.2 1215.18 1089.51L1194.71 1087.34L1206.96 1083.91L1184.58 1032.81C1183.67 1030.73 1182.48 1028.79 1181.05 1027.03L1138.21 974.518L1053.21 956.409L908.793 906.707C905.076 905.428 901.27 904.424 897.407 903.704L854.051 895.63C848.838 894.659 843.538 894.222 838.236 894.326L808.488 894.911L809.21 895.212L805.219 894.976L792.225 895.231C787.529 895.324 784.29 899.972 785.83 904.409C787.293 908.628 783.521 912.799 779.177 911.766L719.21 897.5L681.066 891.942C679.836 891.763 678.586 891.776 677.36 891.98L659.968 894.883L622.21 906.869L605.533 911.084L588.55 917.658C581.373 920.437 573.786 922.012 566.096 922.322L560.122 922.562L552.21 924.562L556.763 922.698L520.835 924.144L463.96 921.438L424.71 927.683L292.984 936.848L290.71 937.884L286.651 939.381C277.76 942.66 269.512 947.473 262.285 953.603L259.71 955.786L240.958 967.862C232.169 973.523 222.637 977.936 212.634 980.975L189.085 988.132C181.543 990.424 173.704 991.589 165.822 991.589H152.292L138.742 1006.78L113.835 1024.68L82.3353 1013.13L82.8353 991.587L151.21 967.441V958.49L191.46 941.629L211.287 924.6C213.856 922.393 216.968 920.914 220.3 920.314L267.341 911.845L279.57 901.616C286.767 895.596 295.851 892.298 305.234 892.298H370.321L372.736 891.808C406.769 884.903 438.345 869.048 464.21 845.877L489.96 827.663L531.71 809.449L463.71 818.192L390.71 822.355L319.023 819.461C311.824 819.17 304.656 818.354 297.577 817.02L243.335 806.795L188.831 795.121C181.928 793.643 174.918 792.725 167.868 792.376L102.71 789.153L35.7103 796.335C32.8703 794.631 33.7449 790.304 37.0238 789.837L50.7728 787.879L71.6951 783.684C83.7526 781.266 96.0379 780.172 108.333 780.42L160.648 781.478L231.46 791.235L287.085 804.505L355.71 811.114L438.783 807.701C447.554 807.34 456.283 806.289 464.889 804.556L598.789 777.597C607.713 775.8 616.798 774.931 625.9 775.004L768.21 776.144ZM222.636 951.952C220.88 952.706 219.142 953.505 217.424 954.348L186.43 969.564L189.569 970.702C191.893 971.545 194.462 971.394 196.673 970.285L200.806 968.211C208.685 964.258 215.837 958.998 221.958 952.655L222.636 951.952Z" fill="black" fill-opacity="0.34"/>
</g>
<defs>
<filter id="filter0_f_454_3764" x="546.7" y="10.7" width="922.716" height="826.1" filterUnits="userSpaceOnUse" color-interpolation-filters="sRGB">
<feFlood flood-opacity="0" result="BackgroundImageFix"/>
<feBlend mode="normal" in="SourceGraphic" in2="BackgroundImageFix" result="shape"/>
<feGaussianBlur stdDeviation="28.65" result="effect1_foregroundBlur_454_3764"/>
</filter>
<filter id="filter1_f_454_3764" x="1302.6" y="416.762" width="280.294" height="225.477" filterUnits="userSpaceOnUse" color-interpolation-filters="sRGB">
<feFlood flood-opacity="0" result="BackgroundImageFix"/>
<feBlend mode="normal" in="SourceGraphic" in2="BackgroundImageFix" result="shape"/>
<feGaussianBlur stdDeviation="18.25" result="effect1_foregroundBlur_454_3764"/>
</filter>
<filter id="filter2_f_454_3764" x="216.09" y="21.9309" width="432.39" height="396.851" filterUnits="userSpaceOnUse" color-interpolation-filters="sRGB">
<feFlood flood-opacity="0" result="BackgroundImageFix"/>
<feBlend mode="normal" in="SourceGraphic" in2="BackgroundImageFix" result="shape"/>
<feGaussianBlur stdDeviation="26.1" result="effect1_foregroundBlur_454_3764"/>
</filter>
<filter id="filter3_f_454_3764" x="510.5" y="202.5" width="330" height="193.5" filterUnits="userSpaceOnUse" color-interpolation-filters="sRGB">
<feFlood flood-opacity="0" result="BackgroundImageFix"/>
<feBlend mode="normal" in="SourceGraphic" in2="BackgroundImageFix" result="shape"/>
<feGaussianBlur stdDeviation="18.25" result="effect1_foregroundBlur_454_3764"/>
</filter>
<filter id="filter4_f_454_3764" x="1451.68" y="181.5" width="425.817" height="200.402" filterUnits="userSpaceOnUse" color-interpolation-filters="sRGB">
<feFlood flood-opacity="0" result="BackgroundImageFix"/>
<feBlend mode="normal" in="SourceGraphic" in2="BackgroundImageFix" result="shape"/>
<feGaussianBlur stdDeviation="26.75" result="effect1_foregroundBlur_454_3764"/>
</filter>
<filter id="filter5_f_454_3764" x="1653.6" y="172.6" width="118.3" height="118.3" filterUnits="userSpaceOnUse" color-interpolation-filters="sRGB">
<feFlood flood-opacity="0" result="BackgroundImageFix"/>
<feBlend mode="normal" in="SourceGraphic" in2="BackgroundImageFix" result="shape"/>
<feGaussianBlur stdDeviation="16.7" result="effect1_foregroundBlur_454_3764"/>
</filter>
<filter id="filter6_f_454_3764" x="0.599998" y="741.6" width="1905.67" height="422.853" filterUnits="userSpaceOnUse" color-interpolation-filters="sRGB">
<feFlood flood-opacity="0" result="BackgroundImageFix"/>
<feBlend mode="normal" in="SourceGraphic" in2="BackgroundImageFix" result="shape"/>
<feGaussianBlur stdDeviation="16.7" result="effect1_foregroundBlur_454_3764"/>
</filter>
</defs>
</svg>
